<?xml version="1.0" encoding="UTF-8"?>
<svg xmlns="http://www.w3.org/2000/svg" version="1.1" viewBox="0 0 612 595.26">
  <defs>
    <style>
      .cls-1 {
        fill: #686d78;
      }
    </style>
  </defs>
  <!-- Generator: Adobe Illustrator 28.6.0, SVG Export Plug-In . SVG Version: 1.2.0 Build 709)  -->
  <g>
    <g id="Capa_1">
      <g>
        <path class="cls-1" d="M375.44,290.7c.14-1.46-.34-2.91-.36-4.38-.39-1.17-.42-2.06-.59-3.3-.74-2.34-1.55-4.64-1.96-7.06-.22-1.04-.93-1.88-1.3-2.75-.78-2.91-2.33-6.15-3.6-8.96-.73-1.2-1.73-2.05-2.36-3.35-1.8-2.68-3.68-5.41-5.46-8.15-.37-.47-.85-.63-1.13-1-.33-.43-.31-.43-.49-.64-.46-.52-1.39-1.04-1.81-1.48-.67-.81-1.46-1.76-2.21-2.56-2.31-2.11-4.68-4.04-7.18-5.82-2.32-2.03-4.91-3.74-7.79-4.73-1.71-1.09-3.44-2.42-5.42-3.05-2.76-.99-4.98-2.17-7.83-2.94-1.42-.28-3.08-.77-4.32-1.24-1.46-.26-3.15-.46-4.69-.72-4.57-.83-8.89-1.42-13.53-1.11-3.28-.08-6.47,1.01-9.74,1.33-1.06.21-2.31.25-3.3.5-1.18.43-2.11.72-3.27.99-3.22.69-5.94,2.15-8.88,3.2-1.89.65-3.47,1.69-4.98,2.8-1.09.64-2.42.91-3.55,1.62-1.7.97-3.1,2.03-4.68,3.36-.87.74-2.18,1.42-2.91,2.21-2.53,1.9-4.68,3.88-6.65,6.33-.68.59-1.67,1.14-2.13,1.97-1.11.76-1.82,2.13-2.6,3.3-1.77,2.36-3.18,4.66-4.72,7.09-.4.71-1.14,1.17-1.51,1.9-.57,1.11-.9,2.2-1.54,3.33-.88,1.7-1.68,4.2-2.19,5.86-.28.75-.87,1.36-1.15,2.24-.55,2.55-1.27,5.09-2.11,7.57-.2,1.08-.1,1.91-.48,2.82-.26.81-.07,1.68-.32,2.49-.21.64-.21,1.28-.14,1.89.05.73-.27,1.45-.27,2.15.29,1.83-.36,3.35-.26,5.17-.29,2.31.25,4.37.42,6.59.04,2.25.78,4.57.96,6.79-.08,1.05.23,2.2.62,3.2-.04,2.22,1.31,3.99,1.91,6.08.23.76.45,1.77.64,2.64.56,1.69,1.34,3.54,2.08,5.09,1.01,1.48,1.96,2.94,2.64,4.51.44.82.29,1.47,1.18,2.11.74.66,1.26,2.35,1.87,3.13.95,1.26,1.79,2.25,2.57,3.52.86.68,1.29,1.68,2.13,2.4.71.6,1.03,1.29,1.66,1.85.56.47,1.05.91,1.48,1.53.52.59.57.95,1.3,1.53,1.19.98,2.9,2.81,4.11,3.75,1.5,1.01,3.23,2.13,4.45,3.54,2.19.94,3.53,2.39,5.84,3.29,1.06.55,1.72,1.14,3.12,1.54.72.19,1.1.69,1.79.94.79.18.95.29,1.82.62.53.21.84.11,1.23.47.29.24.6.69.95.87,1.52.58,3.24,1.08,4.8,1.37.88.28,2.49.27,3.27.87,2.97.53,5.73,1.24,8.71,1.66,1.18.17,2.12,0,3.11.31,1.1.27,1.8.05,2.94-.11.4,0,.87.08,1.3.06.56-.04.88-.3,1.22-.21.57.19,1.31.27,1.98.16.62-.04,1.15.18,1.74.23,1.12,0,1.9-.32,3.12-.35,2.21-.07,4.5-.56,6.66-1.06,1.18-.34,2.27-.38,3.49-.68.36-.12.52-.4,1.1-.49,2.26-.28,4.47-.9,6.59-1.6.61-.13.72-.48,1.32-1.03.4-.36.71-.26,1.23-.47.56-.29,1.23-.42,1.82-.62.99-.54,1.98-1.08,3.07-1.43,1.45-.86,3.37-1.74,4.66-2.56.67-.61,1.47-1.01,2.62-1.56.26-.16.64-.35.77-.61.28-.44.35-.46.63-.68,1.12-.82,2.33-1.79,3.45-2.48,1.55-1.32,3.12-2.86,4.6-4.24.6-.69,1.06-1.52,1.74-2.1.53-.48,1.06-.95,1.47-1.55.58-.72,1.47-1.38,1.93-2.23.42-.58,1.18-1.04,1.57-1.94.59-.84,1.09-1.43,1.67-2.17.77-.81,1.29-2.72,2.13-3.48.81-.65.72-.97,1.08-1.86.56-1.15,1-2.25,1.73-3.26,1.59-2.06,2.2-4.27,3.1-6.6.41-2.16,1.11-4.33,2.12-6.26.41-.72.27-1.64.42-2.46.04-.39.48-1.14.55-1.7.1-1.99.42-4.19.83-6.13.23-1.45.2-3.64.58-5.03.08-.53.13-1.12.13-1.61v-.22c-.04-1.8-.15-3.75-.41-5.54.03-1.04.1-2.15-.2-3.2ZM368.12,299.76v.19c-.13,4.02-.66,8.03-1.74,12-.07,2.09-.77,3.76-1.49,5.66-.5,1.74-1.04,3.03-1.71,4.67-.75,1.1-1.06,2.51-1.64,3.68-.72,1.06-.83,1.91-1.56,3.05-.43.63-1.06,1.3-1.37,2.07-.63.99-.83,2.12-1.94,2.69-.97.47-1.18,2.4-1.84,3.08-.95,1.44-2.6,1.98-3.27,3.7-.26.61-1.27,1.11-1.82,1.69-1.29,1.85-3.35,3.45-4.93,4.85-3.22,2.22-6.38,4.29-9.72,6.42-2.36,1.24-4.86,2.42-7.32,3.31-.99.42-1.62.86-2.57,1.28-4.61,1.64-9.27,2.58-14.12,3.17-.9.06-1.29.06-2.32.15-1.18.1-1.21-.1-2.55.21-.18.04-1.1.07-1.38.03-.56-.08-.6.01-1.57-.07-.72-.06-.8-.08-1.37-.12-1.13-.23-2.52-.4-3.59-.58-2.47-.18-4.56-.78-6.88-1.41-2.08-.49-4.79-1.21-6.71-2.42-3.59-1.38-7.33-3.03-10.48-5.26-2.48-1.49-4.64-3.11-7.06-4.69-.93-.92-2.03-1.68-3.1-2.72-.7-.64-1.23-1.41-1.83-2.13-.55-.58-1.55-1.08-1.82-1.69-.71-1.77-2.5-2.36-3.41-3.9-.59-.74-.77-2.42-1.7-2.87-1.14-.56-1.31-1.7-1.94-2.69-.32-.77-.9-1.39-1.37-2.07-.62-1.05-1.04-2.24-1.68-3.27-.98-2.79-2.19-4.54-2.98-7.42-.73-2.07-1.68-4.16-1.74-6.38-1.1-3.95-1.62-8.27-1.75-12.35-.24-8.85,1.39-17.63,4.65-25.9,1.3-3.37,3.27-6.66,5.36-9.71.32-.95.9-2.16,1.75-2.8,1.39-1.75,2.78-3.47,4.05-5.3.37-.47.44-.63,1.14-.86.22-.09.38-.27.55-.53,1.14-1.84,3.4-3.26,4.77-4.67,1.31-1.59,3.22-2.24,4.72-3.41,1.28-1.32,2.63-2.03,4.29-2.8,1.38-.8,3.17-2.15,4.69-2.69,1.47-.66,3.46-1.5,5.28-1.86.55-.2.95-.6,1.6-.75.94-.16,1.64-.82,2.51-1.12,1.48-.22,3.13-.5,4.51-.91,2.57-.47,4.93-.9,7.5-1.27,4.13-.07,8.37-.33,12.43.44.9.15,1.52.36,2.51.47,2.18.26,4.36,1.06,6.6,1.28.82.25,1.42.87,2.27,1.05.39.09.84.26,1.12.43.63.49,1.23.44,2,.69,3.38,1.02,5.87,2.41,8.69,4.24,1.64.74,3.09,1.57,4.29,2.8,1.18.96,3.1,1.71,4.15,2.84,1.35,1.45,3.35,2.83,4.74,4.41.46.47.6,1.1,1.14,1.36.27.12.62.24.83.46.9,1.32,2.25,2.95,3.17,4.17.5.74,1.14,1.52,1.78,2.09.79.95.91,1.99,1.61,2.96,2.51,3.48,4.27,7.16,5.54,10.65,1.85,4.96,3.02,10.23,3.69,15.46.31,1.83.03,3.87.33,5.57.21,1.23.01,2.26,0,3.35Z"/>
        <path class="cls-1" d="M342.23,296.84c0-.08-.11-.17-.17-.27l-.03-.08c-.03-.1.06-.49.01-.61-.06-.11-.13-.35-.11-.45.01-.08.07-.42.13-.76l-.07-.3c-.04-.18-.15-.35-.17-.54v-.17c.08-.2.14-.59.13-.68-.03-.08-.23-.49-.27-.68-.04-.17.16-.72.06-.89-.11-.18-.23-.41-.25-.49-.04-.08-.06-.32-.01-.54l-.03-.18c-.01-.34-.08-.87-.21-.94-.39-.24-.14-.61-.27-.9-.35-.77-.59-1.61-.63-2.48l-.37-.73c-.28-.14-.42-.51-.45-.79l-.04-.41c-.18-.34-.48-.99-.49-1.18-.01-.21-.25-.87-.38-1.03-.13-.15-.45-.82-.51-1.01-.07-.18-.35-.93-.48-1.1-.1-.18-.38-.45-.62-.58l-.18-.18c-.17-.17.07-.46-.31-.69l-.11-.07c-.13-.28-.73-1-.85-1.24-.1-.25-.41-.83-.52-.93-.1-.1-.39-.39-.48-.58-.08-.17-.54-.75-.62-.92-.08-.18-.3-.7-.41-.8s-.28-.15-.37-.14l-.07-.03c-.06,0-.18-.08-.18-.13l-.13-.39c-.34-.3-1.17-.69-1.23-.9s-.31-.52-.56-.69l-.17-.21-.17-.2c-.15-.25-.54-.55-.82-.69l-.24-.25-.35-.37c-.45-.3-.99-.66-1.03-.73-.06-.07-.25-.24-.34-.35-.08-.11-.66-.34-.8-.48-.16-.14-1.18-1.01-1.54-1.27-.35-.28-1.32-.83-1.56-.97-.25-.14-.76-.25-.87-.32-.11-.06-.44-.15-.52-.13-.08.03-.42-.32-.56-.46-.13-.14-.76-.46-.94-.59-.18-.13-.39-.27-.42-.28-.04-.01-.38-.14-.76-.3l-.34-.11-.41-.14c-.45-.18-.92-.35-1.07-.41l-.11-.07-.14-.07c-.14-.08-.77-.24-.94-.34-.17-.1-.59-.28-.96-.41h-.3l-.23-.03c-.2-.1-.86-.24-1.42-.38l-.47-.21-.24-.11c-.2-.01-1.18-.06-1.69-.17-.51-.07-1.99-.32-2.25-.31-.25.01-.61-.13-.65-.18-.06-.06-.49-.06-.63-.11-.14-.06-.61-.13-.77-.11-.17.01-.58-.03-.79.01-.08.01-.24.01-.4,0h0s-.04,0-.06,0c-.02,0-.04,0-.06,0h0c-.16.01-.32.01-.4,0-.21-.04-.62,0-.79-.01-.17-.01-.63.06-.77.11-.14.06-.58.06-.63.11-.04.06-.39.2-.65.18-.27-.01-1.75.24-2.25.31-.51.11-1.49.15-1.69.17l-.24.11-.47.21c-.56.14-1.23.28-1.42.38h-.23l-.3.03c-.37.13-.79.31-.96.41-.17.1-.8.25-.94.34l-.14.07-.11.07c-.16.06-.62.23-1.07.41l-.41.14-.34.11c-.38.15-.72.28-.76.3-.03.01-.24.15-.42.28-.18.13-.82.45-.94.59-.14.14-.48.49-.56.46-.08-.03-.41.07-.52.13-.11.07-.62.18-.87.32-.24.14-1.21.69-1.56.97-.35.25-1.38,1.13-1.54,1.27-.14.14-.72.37-.8.48-.08.11-.28.28-.34.35-.04.07-.58.44-1.03.73l-.35.37-.24.25c-.28.14-.66.44-.82.69l-.17.2-.17.21c-.25.17-.51.48-.56.69-.06.21-.89.61-1.23.9l-.13.39s-.13.13-.18.13l-.07.03c-.08-.01-.25.04-.37.14-.11.1-.32.62-.41.8-.08.17-.54.75-.62.92-.08.18-.38.48-.48.58-.11.1-.42.68-.52.93-.11.24-.72.96-.85,1.24l-.11.07c-.38.23-.14.52-.31.69l-.18.18c-.24.13-.52.39-.62.58-.13.17-.41.92-.48,1.1-.06.2-.38.86-.51,1.01-.13.15-.37.82-.38,1.03-.01.2-.31.85-.49,1.18l-.04.41c-.03.28-.17.65-.45.79l-.37.73c-.04.87-.28,1.7-.63,2.48-.13.3.13.66-.27.9-.13.07-.2.61-.21.94l-.03.18c.04.21.03.45-.01.54-.03.08-.14.31-.25.49-.1.17.1.72.06.89-.04.18-.24.59-.27.68-.01.08.04.48.14.68v.17c-.03.18-.14.35-.18.54l-.07.3c.06.34.11.68.13.76.01.1-.06.34-.11.45-.04.11.04.51.01.61l-.03.08c-.06.1-.17.18-.17.27.01.23.08.44.08.65.01.25-.08.52-.1.79v.24c.04.25.04.63,0,.85l.11.21.08.13c.01.23.07.68.11,1.01,0,.32.03,1.32.13,1.54.1.2.18,1.41.41,2.14,0,0-.01,0-.07.75,0,.21.08.55.18.73l.2.31c.01.34.01.79-.01,1l.04.17c.06.17.18.32.28.48l.06.08c.08.07.25.62.52,1.2.24.56.47,2.16.49,2.2.01.03.1.08.16.11.04.04.17.51.25.79.08.27.47,1.17.59,1.39.13.23.68.9.83,1.07.15.15.3.86.47.96.17.1.31.9.39,1.24l.41.23.17.08c.2.48.52,1.24.79,1.62l.27.34.28.34c.35.34.69.89.77,1.21l.41.2c.32.16.15.76.63.92.38.14.56.39.62.76.01.01.06.07.08.08l.25.17c.24.21.52.45.62.54.1.07.38.59.54.83l.17.15.38.32c.38.37,1.04.99,1.45,1.37l.38.34.25.21c.3.18.69.38.83.48.16.08.45.42.55.52.08.11.52.27.63.32v.04l.04.38c.34.06,1.08.54,1.25.52.17,0,.34.18.38.41h.03c.27-.06.28.25.37.25.32-.01.46.1.65.38.04.07.47.07.69.17l.17.08c.18.17.47.38.63.45.17.08.93.31,1.25.42l.17.27s.11.07.15.08c.32.07.68.07.97.21l.23.11c.17.23.37.21.44-.03l.34.46.3.37c.42.04.96.2,1.2.35.24.15,1.11.14,1.38.25.25.14,1.27.18,1.56.2l-.1.25s.16.11.2.1l.41-.07c.44.17.94.25,1.13.2.18-.06.7.3.86.28.15,0,.73,0,.9.1.18.11,1.27.25,1.87.32l.54-.08c.18-.03.48.2.75.23h.2c.23-.01.49,0,.58.04h.01l.51-.27c.15.04.28.07.41.09v.03s.04-.01.06-.01c.02,0,.04.01.06.01v-.03c.13-.02.26-.04.41-.09l.51.27h.01c.08-.04.35-.06.58-.03h.2c.27-.04.56-.27.75-.24l.54.08c.61-.07,1.69-.21,1.87-.32.17-.1.75-.1.9-.1.15.01.68-.34.86-.28.18.06.69-.03,1.13-.2l.41.07s.2-.08.2-.1l-.1-.25c.3-.01,1.31-.06,1.56-.2.27-.11,1.14-.1,1.38-.25.24-.16.77-.31,1.2-.35l.3-.37.34-.46c.07.24.27.25.44.03l.23-.11c.3-.14.65-.14.97-.21.04-.01.13-.06.15-.08l.17-.27c.32-.11,1.08-.34,1.25-.42.17-.07.45-.28.63-.45l.17-.08c.23-.1.65-.1.69-.17.18-.28.32-.39.65-.38.08,0,.1-.31.37-.27h.03c.04-.21.21-.39.38-.39.17.01.92-.46,1.25-.52l.04-.38v-.04c.11-.06.55-.21.63-.32.1-.1.39-.44.55-.52.14-.1.54-.3.83-.48l.25-.21.38-.34c.41-.38,1.07-1,1.45-1.37l.38-.32.17-.15c.15-.24.44-.76.54-.83.1-.08.38-.32.62-.54l.25-.17s.07-.07.08-.08c.06-.37.24-.62.62-.76.48-.15.31-.76.63-.92l.41-.2c.08-.32.42-.87.77-1.21l.28-.34.27-.34c.27-.38.59-1.14.79-1.62l.17-.08.41-.23c.08-.34.23-1.14.39-1.24.17-.1.31-.8.47-.96.15-.17.7-.85.83-1.07.13-.23.51-1.13.59-1.39.08-.28.21-.75.25-.79.06-.03.14-.08.16-.11.03-.04.25-1.63.49-2.2.27-.58.44-1.13.52-1.2l.06-.08c.1-.16.23-.31.28-.48l.04-.17c-.03-.21-.03-.66-.01-1l.2-.31c.1-.18.18-.52.18-.73-.06-.75-.07-.75-.07-.75.23-.73.31-1.94.41-2.14.1-.21.13-1.21.13-1.54.04-.34.1-.79.11-1.01l.08-.13.11-.21c-.04-.21-.04-.59,0-.85v-.24c-.01-.27-.11-.54-.1-.79,0-.21.07-.42.08-.65ZM336.95,298.7l-.07,1.32c0,.45-.06.89-.13,1.32l-.21,1.31-.06.44c-.04.24-.08.54-.15.83-.1.28-.2.55-.28.75v.89c-.17.54-.37,1.44-.65,1.94l-.2.48c-.1.27-.13.55-.21.82l-.1.27c-.17.28-.45,1.01-.49,1.18-.01.18-.45.52-.48.7-.01.18-.07.76-.18.87-.1.1-.37.62-.45.76-.08.15-.21.49-.31.77l-.14.23c-.17.25-.41.46-.59.7-.1.13-.18.34-.18.46-.01.44-.55.56-.54,1-.01.06-.15.24-.2.24l-.51.04c-.15.45-.49,1.47-.68,1.65-.18.2-.52.55-.62.61-.1.06-.51.37-.9.7l-.07.28-.11.41c-.27.21-.9.56-1.01.72-.1.15-.35.72-.54.79-.17.06-.48.59-.65.68-.18.1-.47.31-.62.38-.16.07-.35.35-.44.62l-.38.03c-.11.01-.3.31-.46.46-.07.07-.21.17-.25.17-.25-.07-.3.37-.61.31-.13-.03-.45.32-.69.49-.38.31-.82.52-1.21.77l-.42.25c-.44.27-1.3.94-1.52.99-.23.06-.8.38-.96.48-.15.1-.87.27-1.04.42-.18.13-.7.39-1.18.46l-.41.18-.07.03c-.07.03-.85.56-1.17.65-.32.14-2.1.59-2.68.73-.58.14-1.35.39-1.47.42-.11.04-.49.08-.59.1-.1,0-.38.01-.61.01l-.21.04-.21.03c-.23.08-1.08.15-1.34.2-.24.06-.66.13-.92.24l-.07-.03-.41-.24c-.11.02-.21.05-.3.09-.1-.04-.2-.07-.3-.09l-.41.24-.07.03c-.25-.11-.68-.18-.92-.24-.25-.04-1.11-.11-1.34-.2l-.21-.03-.21-.04c-.23,0-.51-.01-.61-.01-.1-.01-.48-.06-.59-.1-.11-.03-.89-.28-1.47-.42-.58-.14-2.35-.59-2.68-.73-.32-.08-1.1-.62-1.17-.65l-.07-.03-.41-.18c-.48-.07-1-.34-1.18-.46-.17-.15-.89-.32-1.04-.42-.15-.1-.73-.42-.96-.48-.23-.04-1.08-.72-1.52-.99l-.42-.25c-.39-.25-.83-.46-1.21-.77-.24-.17-.56-.52-.69-.49-.31.06-.35-.38-.61-.31-.04,0-.18-.1-.25-.17-.17-.15-.35-.45-.46-.46l-.38-.03c-.08-.27-.28-.55-.44-.62-.15-.07-.44-.28-.62-.38-.17-.08-.48-.62-.65-.68-.18-.07-.44-.63-.54-.79-.11-.15-.75-.51-1.01-.72l-.11-.41-.07-.28c-.39-.34-.8-.65-.9-.7-.1-.06-.44-.41-.62-.61-.18-.18-.52-1.2-.68-1.65l-.51-.04s-.18-.18-.2-.24c.01-.44-.52-.56-.54-1,0-.13-.08-.34-.18-.46-.18-.24-.42-.45-.59-.7l-.14-.23c-.1-.28-.23-.62-.31-.77-.08-.14-.35-.66-.45-.76-.11-.11-.17-.69-.18-.87-.03-.18-.47-.52-.48-.7-.04-.17-.32-.9-.49-1.18l-.1-.27c-.08-.27-.11-.55-.21-.82l-.2-.48c-.28-.51-.48-1.41-.63-1.94v-.89c-.1-.2-.2-.46-.3-.75-.07-.3-.11-.59-.15-.83l-.06-.44-.21-1.31c-.07-.44-.13-.87-.13-1.32l-.07-1.32-.07-1.32.03-.28c.07-.3.13-.59.14-.63.01-.06-.01-.46-.04-.8-.04-.34.18-2.21.21-2.34-.01-.14.06-.51.06-.63.01-.14.24-.8.3-1.14l.06-.34c.04-.32.1-.65.2-.97l.28-1.06.24-.97c.08-.31.16-.63.28-.94l.34-.93.13-.31c.14-.34.47-1.37.94-2.2.23-.42.68-1.24,1.1-1.99.49-.72.97-1.35,1.11-1.48v-.45c.17-.1.37-.41.41-.7,0,0,.01-.03.35-.18.18-.08.35-.44.52-.66l.28-.38c.31-.42.69-.89.86-1.04.16-.16.58-.83.63-1.08h.62c.01-.24.2-.59.39-.76.2-.18.82-.77.99-.9.14-.15.82-.62,1.06-.9l.24-.25.25-.25c.28-.28.72-.54.92-.62.2-.08.7-.44,1.04-.54l.24-.31c.2-.25.55-.45.85-.65l.31-.18c.34-.21.8-.41,1.01-.45l.16-.1.15-.1c.14-.15.83-.69,1.63-1.01.39-.17,1.14-.48,1.82-.72.66-.25,1.31-.32,1.39-.3l.16-.3c.04-.07.41-.06.62-.11l.2-.06c.23-.08.54-.3.69-.48.15-.2.96-.07,1.18-.13.23-.06,1.01-.27,1.24-.32.23-.07,1.06-.24,1.34-.2l.24-.03c.23-.04.44-.17.66-.2l.45-.04c.48-.07,1.2-.24,1.62-.24.22-.01.65,0,1.06.02h0s.04,0,.06,0c.02,0,.04,0,.06,0h0c.41-.02.84-.04,1.06-.03.42,0,1.14.17,1.62.24l.45.04c.23.03.44.15.66.2l.24.03c.28-.04,1.11.13,1.34.2.23.06,1.01.27,1.24.32.23.06,1.03-.07,1.18.13.16.18.47.39.69.48l.2.06c.21.06.58.04.62.11l.15.3c.08-.03.73.04,1.39.3.68.24,1.42.55,1.82.72.8.32,1.49.86,1.63,1.01l.15.1.16.1c.21.04.68.24,1.01.45l.31.18c.3.2.65.39.85.65l.24.31c.34.1.85.45,1.04.54s.63.34.92.62l.25.25.24.25c.24.28.92.75,1.06.9.17.13.79.72.99.9.2.17.38.52.39.76h.62c.06.25.48.93.63,1.08.17.15.55.62.86,1.04l.28.38c.17.23.34.58.52.66.34.15.35.18.35.18.04.3.24.61.42.7v.45c.13.13.61.76,1.1,1.48.42.75.87,1.56,1.1,1.99.48.83.8,1.86.94,2.2l.13.31.34.93c.13.31.2.63.28.94l.24.97.28,1.06c.1.32.16.65.2.97l.06.34c.06.34.28,1,.3,1.14,0,.13.07.49.06.63.03.13.25,2,.21,2.34-.03.34-.06.75-.04.8.01.04.07.34.14.63l.03.28-.07,1.32Z"/>
        <path class="cls-1" d="M502.82,297.15s-.09-.18-.09-.2c-.06-.24-.07-.24-.07-.24-.27-.3-.84-.45-.95-.55-.13-.08-.34-.22-.42-.27-.07-.05-.31-.21-.55-.36l-.14-.05-.2-.07c-.17-.11-.49-.35-.59-.4-.1-.05-.42-.17-.49-.23-.08-.06-.39-.2-.48-.26-.1-.07-.24-.16-.34-.23-.08-.06-.25-.14-.38-.18l-.14-.13s-.22-.11-.33-.17c-.05-.03-.14-.08-.15-.09-.06-.08-.24-.11-.33-.21-.04-.04-.28-.17-.43-.25l-.73-.42-.24-.14c-.26-.15-.79-.44-.92-.52-.11-.07-.44-.25-.54-.31-.1-.05-.44-.29-.56-.34-.12-.06-.4-.23-.64-.38l-.23-.12-.04-.02s-.52-.24-.69-.35c-.1-.06-.4-.23-.72-.42,0-.69,0-1.46,0-2.28-.13-1.95-.28-4.15-.42-6.13l-.38-3.03-.4-2.33c-.14-1.15-.43-3.46-.78-6.25-.4-2.78-1.04-6.01-1.56-9.07l-.09-.64c-.09-.64-.36-1.9-.84-4.45l-.51-2.65c-.15-.5-.37-1.51-.77-2.79-.4-1.28-.9-2.85-1.43-4.51-.98-3.36-2.38-7.02-3.25-9.59-.22-.64-.49-1.44-.79-2.35-.32-.9-.73-1.89-1.14-2.96-.85-2.12-1.71-4.54-2.71-6.8-1.02-2.26-2-4.44-2.8-6.21-.79-1.77-1.55-3.06-1.86-3.66-1.33-2.35-2.84-5.83-3.1-6.35-.2-.56-2.57-4.44-3.27-5.8-.67-1.39-3.28-5.55-4.25-7.04-.93-1.52-3.47-5.01-4.76-6.72-1.23-1.77-5.26-6.7-6.21-8.1-.94-1.41-3.6-4.16-5.7-6.26l-.25-.27c-.26-.26-.74-.84-1.82-1.87l-1.21-1.18c-1.52-1.71-3.94-4.37-5.62-5.65l-1.68-1.82-1.33-1.45c-.82-.93-4.07-3.73-7.41-6.58-3.37-2.81-6.98-5.49-8.22-6.56-2.61-1.98-5.37-4.01-6.13-4.51l-.46-.24-.62-.33c-.49-.16-4.44-3.1-6.28-4.22-1.83-1.14-5.81-3.25-8.71-4.93,0,0,.01-.02-2.67-1.33-1.76-.86-3.65-2.09-5.48-3.01-2.11-.95-4.21-1.72-6.32-2.58l-.31-.13c-.21-.09-1.13-.65-2.21-1.16-1.08-.51-2.27-1.05-2.93-1.27-.66-.23-2.59-.92-4.65-1.65-2.08-.68-4.3-1.36-5.48-1.79-2.32-.97-10.55-3.19-12.91-3.77-1.19-.25-3.36-.75-5.44-1.24-1.04-.25-2.05-.5-2.91-.71-.87-.18-1.57-.33-1.99-.41-.83-.17-4.39-.94-8.28-1.53-3.91-.48-8.12-1.12-10.22-1.13-2.09-.1-5.17-.25-7.85-.38-.5,0-.98-.01-1.45-.02-.08-.13-.15-.25-.18-.29-.04-.08-.14-.25-.19-.34-.05-.09-.58-.99-.69-1.18-.1-.18-.2-.38-.22-.41-.02-.03-.11-.17-.21-.31l-.08-.14-.39-.67-.39-.67-.39-.67-.39-.67-.13-.22c-.14-.24-.35-.61-.46-.83l-.14-.2-.15-.22c-.16-.28-.41-.74-.58-1.04l-.15-.26c-.08-.13-.17-.28-.26-.42l-.08-.14c-.08-.16-.3-.56-.37-.64-.06-.08-.16-.35-.22-.43-.06-.09-.26-.34-.29-.41-.03-.08-.2-.38-.25-.46-.05-.09-.16-.27-.26-.4l-.08-.14c-.1-.18-.25-.35-.43-.47-.1-.06-.25-.11-.33-.12-.25-.03-.55-.09-.77.04-.04.01-.18.09-.2.09-.24.06-.24.07-.24.07-.3.27-.45.84-.55.95-.08.13-.22.34-.27.42-.05.07-.21.31-.36.55l-.05.14-.07.2c-.11.17-.35.49-.4.59-.05.1-.17.42-.23.49-.06.08-.2.39-.26.48-.07.1-.16.24-.23.34-.06.08-.14.25-.18.38l-.13.14s-.11.22-.17.33c-.03.05-.08.14-.09.15-.08.06-.11.24-.21.33-.04.04-.17.28-.25.43l-.42.73-.14.24c-.15.26-.44.79-.52.92-.07.11-.25.44-.31.54-.05.1-.29.44-.34.56-.06.12-.23.4-.38.64l-.12.23-.02.04s-.24.52-.35.69c-.07.12-.33.56-.56.95-.23.02-.24.02-.24.02-2.7.03-6.65.47-10.19.72-3.53.37-6.64.83-7.67.88-.51.05-1.4.14-2.48.24-1.07.17-2.34.38-3.61.59-2.55.44-5.15.83-6.31,1.14-1.17.28-3.26.86-5.3,1.42-1.02.28-2.02.55-2.88.78-.85.27-1.57.48-2.03.6-.92.24-4,1.07-7.02,1.96-2.99,1.01-5.92,2.02-6.65,2.31-1.49.51-6.94,3.2-8.68,3.99-1.74.81-4.11,1.47-4.45,1.39-.33-.05-1.56.5-2.73,1.23l-.79.34c-1.08.47-1.63.7-1.89.84l-.27.13c-2.29,1.07-7.35,3.44-8.51,4.21-.59.36-2.67,1.49-4.94,2.73-2.3,1.19-4.62,2.76-5.91,3.6-2.61,1.67-7.83,5.53-11.64,8.51l-2.63,1.81-2.39,1.64c-.7.67-3.71,3.04-4.41,3.8-.68.78-3.08,3.06-3.71,3.74-.63.66-5.13,4.54-6.29,5.86-1.11,1.37-5.97,6.58-7.55,8.49-.83.91-2.1,2.25-3.46,3.67-1.36,1.43-2.71,3.04-3.9,4.33l-1.98,3.13c-.37.59-.36.6-.36.6-.87,1.17-3.89,4.81-4.74,6.07-.86,1.26-3.54,6.28-4.24,7.03-.74.73-2.83,3.94-4.82,7.06l-.45,1.33c-.49,1.52-.67,2.31-.79,2.68l-.11.38c-.9,1.46-2.39,3.97-3.63,6.44-1.2,2.48-2.31,4.84-2.77,5.85-.94,2.01-4.4,10.35-7.16,18.74l-1.75,7.52-.15.65c-.17.45-.75,2.45-1.4,4.68-.63,2.23-1.37,4.69-1.54,6.11-.22,1.4-.52,3.26-.82,5.11-.15.93-.3,1.85-.44,2.72-.11.87-.21,1.69-.3,2.4l-.25,2.57-.27,2.76c-.27,1.69-.56,5.03-.96,8.28-.09.81-.18,1.62-.26,2.4-.04.78-.08,1.53-.12,2.21,0,.05,0,.09,0,.14-.08.05-.23.12-.31.17-.09.05-.99.58-1.18.69-.18.1-.38.2-.41.22-.03.02-.17.11-.31.21l-.14.08-.67.39-.67.39-.67.39-.67.39-.22.13c-.24.14-.61.35-.83.46l-.2.14-.22.15c-.28.16-.74.41-1.04.58l-.26.15c-.13.08-.28.17-.42.26l-.14.08c-.16.08-.56.3-.64.37-.08.06-.35.16-.43.22-.09.06-.34.26-.41.29-.08.03-.38.2-.46.25-.09.05-.27.16-.4.26l-.14.08c-.18.1-.35.25-.47.43-.06.1-.11.25-.12.33-.03.25-.09.55.04.77.01.04.09.18.09.2.06.24.07.24.07.24.27.3.84.45.95.55.13.08.34.22.42.27.07.05.31.21.55.36l.14.05.2.07c.17.11.49.35.59.4.1.05.42.17.49.23.08.06.39.2.48.26.1.07.24.16.34.23.08.06.25.14.38.18l.14.13s.22.11.33.17c.05.03.14.08.15.09.06.08.24.11.33.21.04.04.28.17.43.25l.73.42.24.14c.26.15.79.44.92.52.11.07.44.25.54.31.1.05.44.29.56.34.12.06.4.23.64.38l.23.12.04.02s.52.24.69.35c.12.07.55.32.94.55.04,1.24.08,2.47.12,3.66l.28,5.27c.05.84.11,2.24.2,2.52l.78,2.61c.23,1.98.38,5.09.78,7.93.39,2.84.77,5.44,1.02,6.42.46,1.97,1.91,7.48,2.22,9.03.3,1.55,1.67,5.59,2.09,7.43.37,1.86,1.92,6.18,2.46,8.04.41,1.91,4.06,11.08,4.66,12.15.62,1.07,2.1,4.9,2.45,5.96.18.53.42,1.18.68,1.81.28.61.58,1.2.81,1.61l.15.24.88,1.35c1.09,1.61,2.27,4.06,2.77,5.38l.69,1.51.63,1.36c.6,1,1.73,2.89,2.86,4.79,1.21,1.85,2.42,3.7,3.12,4.67.34.49.97,1.38,1.74,2.48.81,1.07,1.78,2.35,2.75,3.64.98,1.29,1.93,2.62,2.8,3.74.89,1.11,1.64,2.05,2.08,2.66.92,1.19,2.26,3.26,3.97,5.42,1.71,2.15,3.52,4.61,5.22,6.67l3.16,2.28,2.07,1.49c1.45,1.93,4.62,5.28,5.23,5.98.16.17.71.67,1.49,1.37.79.69,1.85,1.51,2.95,2.41,2.22,1.78,4.64,3.8,6.02,4.85,1.36,1.07,3.17,2.5,4.73,3.73,1.59,1.2,2.98,2.12,3.33,2.42.74.56,2.99,2.38,5.12,3.9l2.04,1.32c1.45.93,4.09,2.36,4.29,2.55,2.12,1.86,3.57,1.79,5.4,3.05l1.43.97c1.58,1.1,6.43,3.31,7.67,4.02,1.22.74,4.76,2.53,7.79,4.19l.48.19c.48.18,1.42.59,3.36,1.22,1.72.58,4.83,2.03,5.87,2.31,2.04.52,3.1.69,3.61.81l.52.11c2.39.89,5.81,2.18,8.95,3.06,3.12.95,5.87,1.77,6.85,1.93,1.94.42,5.02,1.01,6.24,1.13,1.22.16,3.37.39,4.73.7l.47.15,3.19,1c.57.09,1.23.2,1.93.31.71.08,1.48.16,2.28.25,1.6.17,3.32.35,4.98.53,1.66.21,3.26.29,4.6.37,1.35.09,2.43.17,3.08.24,1.29.13,2.79.31,4.06.39.59.03,1.13.06,1.58.08.05.08.1.16.11.19.04.08.14.25.19.34.05.09.58.99.69,1.18.1.18.2.38.22.41.02.03.11.17.21.31l.08.14.39.67.39.67.39.67.39.67.13.22c.14.24.35.61.46.83l.14.2.15.22c.16.28.41.74.58,1.04l.15.26c.08.13.17.28.26.42l.08.14c.08.16.3.56.37.64.06.08.16.35.22.43.06.09.26.34.29.41.03.08.2.38.25.46.05.09.16.27.26.4l.08.14c.1.18.25.35.43.47.1.06.25.11.33.12.25.03.55.09.77-.04.04-.01.18-.09.2-.09.24-.06.24-.07.24-.07.3-.27.45-.84.55-.95.08-.13.22-.34.27-.42.05-.07.21-.31.36-.55l.05-.14.07-.2c.11-.17.35-.49.4-.59.05-.1.17-.42.23-.49.06-.08.2-.39.26-.48.07-.1.16-.24.23-.34.06-.08.14-.25.18-.38l.13-.14s.11-.22.17-.33c.03-.05.08-.14.09-.15.08-.06.11-.24.21-.33.04-.04.17-.28.25-.43l.42-.73.14-.24c.15-.26.44-.79.52-.92.07-.11.25-.44.31-.54.05-.1.29-.44.34-.56.06-.12.23-.4.38-.64l.12-.23.02-.04s.24-.52.35-.69c.04-.07.14-.24.26-.44.9,0,1.77-.02,2.55-.04,1.09-.08,1.99-.15,2.54-.19,2.16-.25,5.93-.65,8.34-1.24l2.53-.43c1.21-.21,2.14-.17,3.26-.19.56-.01,1.17-.04,1.88-.12.71-.12,1.52-.29,2.49-.57l1.21-.34c.77-.11,1.94-.32,3.3-.57.68-.13,1.41-.27,2.17-.41.75-.18,1.52-.37,2.28-.56,3.06-.77,6.09-1.45,7.41-1.8,2.64-.68,9.14-2.32,10.5-2.92,1.4-.49,5.43-1.92,7.26-2.56,1.84-.63,8.86-3.39,10.68-4.24.93-.37,2.65-1.05,4.31-1.7,1.66-.67,3.21-1.45,3.89-1.82,1.37-.77,2.74-1.67,3.06-2l.59-.42c.38-.25,1.61-1,1.9-1.15l3.5-1.58c1-.61,2.22-1.37,3.5-2.2,1.25-.89,2.57-1.83,3.82-2.72,1.26-.88,2.44-1.72,3.41-2.4.95-.72,1.7-1.25,2.13-1.5,1.68-.99,5.18-3.24,7.5-5.32l2.2-1.68,2.17-1.66c1.17-.85,2.64-2.14,4.14-3.44,1.48-1.32,3.02-2.64,4.06-3.82l2.76-2.53c1.88-1.73,2.83-2.58,3.26-3.05l.45-.45c1.85-2.08,3.97-4.32,5.59-6.21,1.6-1.92,2.84-3.38,3.15-3.71.63-.66,2.38-2.64,3.27-3.73.9-1.08,4.57-6.09,5.74-7.81.31-.42,1.06-1.43,2.06-2.77.5-.67,1.05-1.43,1.65-2.23.55-.83,1.14-1.71,1.74-2.61,1.19-1.81,2.45-3.66,3.5-5.35,1-1.72,1.88-3.22,2.46-4.21.56-1.01,1.4-2.36,2.22-3.95.81-1.59,1.72-3.34,2.6-5.05.91-1.7,1.68-3.4,2.32-4.84.65-1.43,1.17-2.6,1.48-3.27.3-.67.65-1.48.99-2.33.31-.87.63-1.79.93-2.66.6-1.74,1.14-3.31,1.39-3.96.57-1.29,1.47-4.53,1.57-5.24.05-.35.52-1.63,1.07-3.05.28-.71.57-1.45.84-2.13.24-.69.45-1.31.6-1.76.3-.91.99-3.15,1.68-5.43.74-2.28,1.21-4.67,1.54-5.77.57-2.22,1.27-4.72,1.32-5.09.06-.36.68-4.09,1.38-8.29,0,0,.04,0,.44-3.79l.49-4.46c.32-2.49.39-5.09.58-7.25.15-2.16.32-3.89.33-4.67t.06-.99s.07-.04.08-.05c.08-.04.25-.14.34-.19.09-.05.99-.58,1.18-.69.18-.1.38-.2.41-.22.03-.02.17-.11.31-.21l.14-.08.67-.39.67-.39.67-.39.67-.39.22-.13c.24-.14.61-.35.83-.46l.2-.14.22-.15c.28-.16.74-.41,1.04-.58l.26-.15c.13-.08.28-.17.42-.26l.14-.08c.16-.08.56-.3.64-.37.08-.06.35-.16.43-.22.09-.06.34-.26.41-.29.08-.03.38-.2.46-.25.09-.05.27-.16.4-.26l.14-.08c.18-.1.35-.25.47-.43.06-.1.11-.25.12-.33.03-.25.09-.55-.04-.77ZM483.79,293.57s0,.03,0,.04h-1.16c.13-.02.3-.06.41-.05.19,0,.47,0,.58,0,.04,0,.1,0,.17,0ZM322.18,120.57c2.02,0,6.05.62,9.79,1.08,3.73.57,7.14,1.31,7.94,1.47.4.08,1.08.22,1.91.4.82.2,1.8.44,2.79.68,1.99.47,4.07.95,5.21,1.19,2.26.56,10.14,2.68,12.37,3.61,1.13.41,3.26,1.06,5.25,1.71,1.98.7,3.83,1.35,4.46,1.58.64.21,1.78.73,2.81,1.22,1.03.49,1.91,1.03,2.11,1.12l.3.12c2.03.82,4.04,1.55,6.06,2.46,1.75.88,3.56,2.06,5.24,2.89,2.57,1.25,2.56,1.27,2.56,1.27,2.77,1.61,6.59,3.62,8.35,4.72,1.77,1.07,5.55,3.9,6.02,4.05l.6.31.44.23c.73.48,3.38,2.43,5.88,4.33,1.19,1.03,4.64,3.6,7.88,6.29,3.2,2.73,6.33,5.41,7.11,6.31l1.28,1.39,1.6,1.75c1.61,1.22,3.94,3.77,5.39,5.42l1.16,1.13c1.04.98,1.5,1.53,1.75,1.79l.24.26c2.02,2.01,4.58,4.64,5.47,6,.9,1.35,4.77,6.07,5.95,7.77,1.24,1.64,3.68,4.99,4.57,6.45.93,1.43,3.43,5.42,4.07,6.76.67,1.31,2.94,5.03,3.14,5.56.25.51,1.68,3.84,2.96,6.09.3.58,1.03,1.81,1.78,3.51.76,1.7,1.71,3.79,2.68,5.95.96,2.17,1.78,4.49,2.6,6.52.39,1.02.79,1.97,1.09,2.83.29.87.55,1.63.76,2.25.83,2.47,2.18,5.97,3.12,9.19.51,1.6.99,3.1,1.38,4.32.38,1.23.6,2.19.74,2.68l.48,2.54c.46,2.44.71,3.65.8,4.26l.09.61c.5,2.93,1.12,6.03,1.5,8.69.33,2.67.61,4.88.74,5.99l.39,2.23.37,2.9c.13,1.9.27,4.01.4,5.88,0,1.87,0,3.5.01,4.44,0,0,0,.02,0,.03-.16,0-.34,0-.4,0-.07,0-.35,0-.48,0-.13,0-.57,0-.7,0-.12,0-.38-.01-.59-.02l-.18.02-.49.07c-.56-.02-1.28-.05-1.38-.05-.11,0-.35,0-.58,0h-.17l-.16.03c-.14,0-.39,0-.54.03l-.22-.03-.13-.02c-.21,0-.45,0-.56,0h-.06l-.36.06c-.43,0-1.38-.02-1.62-.02-.23,0-.67,0-.77.01-.1,0-.5-.02-.62-.02-.13,0-.55.02-.71.02-.13,0-.46-.02-.57-.02-.1,0-.45.04-.53.03-.08-.01-.41-.01-.52-.02-.11,0-1,.02-1.29.03-.08,0-.16,0-.25,0,.01-.89,0-2.27,0-3.85-.12-1.72-.25-3.67-.36-5.42l-.35-2.67-.37-2.05c-.13-1.02-.38-3.06-.68-5.52-.35-2.46-.92-5.32-1.38-8.02,0,0,.07-.01-.8-4.5l-.44-2.34c-.13-.45-.34-1.34-.69-2.47-.36-1.13-.81-2.51-1.28-3.99-.87-2.97-2.12-6.19-2.89-8.47-.37-1.14-.94-2.82-1.7-4.69-.75-1.87-1.51-4.01-2.39-6.01-.9-2-1.77-3.92-2.47-5.49-.7-1.57-1.37-2.71-1.65-3.23-1.18-2.07-2.5-5.15-2.72-5.62-.17-.5-2.27-3.92-2.89-5.13-.59-1.23-2.88-4.92-3.74-6.24-.82-1.34-3.07-4.43-4.22-5.94-1.09-1.55-4.66-5.91-5.49-7.16-.82-1.25-3.18-3.67-5.06-5.51l-.23-.24c-.23-.23-.66-.74-1.62-1.64l-1.08-1.04c-1.33-1.52-3.48-3.87-4.97-4.99l-1.47-1.62-1.17-1.29c-.72-.83-3.59-3.3-6.55-5.82-2.98-2.48-6.17-4.85-7.26-5.8-2.3-1.76-4.73-3.56-5.41-4l-.41-.2-.56-.28c-.44-.13-3.91-2.76-5.54-3.74-1.62-1-5.14-2.86-7.7-4.34,0,0,.01-.02-2.36-1.17-1.55-.76-3.22-1.86-4.83-2.67-1.87-.84-3.73-1.5-5.6-2.25l-.28-.11c-.18-.08-1-.59-1.94-1.05-.95-.46-2-.94-2.59-1.13-.59-.21-2.3-.8-4.12-1.44-1.84-.6-3.8-1.19-4.84-1.57-2.05-.86-9.32-2.82-11.41-3.32-1.05-.22-2.97-.66-4.8-1.1-.92-.22-1.81-.44-2.57-.63-.76-.16-1.39-.29-1.76-.37-.74-.15-3.87-.84-7.32-1.36-3.45-.43-7.17-.99-9.03-.99-1.85-.08-4.57-.21-6.94-.31-1.42-.01-2.69-.03-3.58-.05,0-.11,0-.2,0-.26,0-.25,0-.7,0-.99v-.27c0-.13,0-.29.01-.42v-.15c0-.18-.02-.67-.02-.81v-.77c0-.14-.06-.58-.04-.71.02-.12.04-.34.04-.48v-.13c0-.13-.03-.34-.02-.37l.05-.15c-.03-.08-.07-1.5-.08-2.01,0-.51,0-1.03.02-1.15v-.22c-.02-.12-.03-.42-.03-.65v-.22c0-.22-.01-.45,0-.64l.02-.23c-.02-.19-.03-.56-.04-.68,0-.15-.01-.43-.02-.66v-.42c0-.24,0-.7,0-.82,0-.11,0-.48-.01-.69.94.04,2.55.06,4.38.08,2.56.12,5.52.26,7.52.36ZM482.42,293.61h-.26s0-.01,0-.03h0s.08-.01.1,0c.01,0,.08.02.16.04ZM481.48,293.61h-.12s.05,0,.05,0c.02,0,.05,0,.07,0ZM168.95,222.62l.34-1.14c1.69-2.61,3.49-5.3,4.13-5.9.61-.62,2.82-4.87,3.54-5.94.71-1.07,3.3-4.11,4.04-5.09,0,0-.01,0,.29-.51l1.63-2.67c1.02-1.07,2.17-2.42,3.33-3.61,1.16-1.19,2.24-2.31,2.94-3.07,1.26-1.51,4.96-5.52,6.15-6.95-.03,1.64-.04,3.28.29,5.04.37,1.77-.26,3.13-.32,4.88-.03,4.11.27,7.64-.05,11.61.07,1.06.24,1.84.17,2.84-.27,3.43-.09,6.97-.35,10.49.23,4.93-.27,10.32-.25,15.41-.1.78-.14,1.19.07,2.04.66,3.94-.46,8.11.13,12.06.24,1.62.11,3.19.07,4.81-2.06.8-4.04,1.69-5.66,3.45-1.57,1.44-3.49,2.37-4.79,4.02-.93,1.43-2.63,2.2-3.52,3.53-1.86,3.08-4.61,4.96-6.86,7.87-.98,1.09-1.58,2.38-2.37,3.58-1.07.93-2.14,2.34-3.11,3.31-2.52,2.87-5,5.89-7.87,8.45-.79.57-1.8,1.27-2.74,1.97-.12,0-.24,0-.36,0h-1.05c-.57,0-1.78.01-2.07.02-.3,0-1.29,0-1.59,0-.3,0-1.02,0-1.2,0-.15,0-.56.03-.66.04-.1,0-.45-.03-.53-.02-.09,0-.58,0-1,.01,0-3.05.95-10.15,1.27-12.73l.22-2.32.2-2.16c.22-2.39.98-6.24,1.29-8.62.13-1.2.78-3.26,1.33-5.14.57-1.87,1.08-3.55,1.22-3.93l.12-.55,1.41-6.35c2.34-7.06,5.27-14.08,6.06-15.77.39-.85,1.32-2.84,2.35-4.92,1.06-2.07,2.33-4.17,3.11-5.39,0,0-.03,0,.67-2.63ZM460.55,274.5c.29,2.35.53,4.29.65,5.26l.36,1.96.34,2.55c.11,1.67.24,3.53.35,5.17.01,1.4.01,2.64,0,3.49-.02,0-.04,0-.05,0l-.15-.06c-.23.02-.75.09-.9.08-.16,0-.51,0-.82,0h-1.66c-.51,0-1.34-.02-1.88-.03l-.44.06s-.1-.01-.16-.02h-.12c-.12,0-.39.02-.41.01-.03-.01-.17-.02-.31-.02h-.13s-.59.01-.59.01h-.12c-.13,0-.4,0-.46,0-.08,0-.22-.02-.36,0-.02,0-.09,0-.17,0-1.13-1.03-2.36-2.06-3.61-2.82-.71-.63-1.42-1.43-2.25-1.69-.1-.06-.31-.18-.42-.24-1.21-1.86-2.27-3.84-4.09-5.26-.5-.46-.67-1.16-1.1-1.66-.66-.5-1.27-1.02-1.8-1.72-.93-.75-1.48-1.63-1.92-2.7-.16-.19-.13-.16-.52-.47-.37-.31-.64-.97-1.15-1.42-.66-.47-.57-1.35-1.2-1.75-.7-.15-1.05-.36-1.41-1.17-1.05-1.65-2.09-3.05-3.63-4.16-.9-1.84-2.49-2.52-3.62-4.02-.2-.27-.46-.61-.69-.86-.76-.65-2-1.46-2.65-2.24-.6-.61-1.02-.43-1.48-.83-1.35-1.49-3.11-2.31-4.81-3.35-.01-.09-.02-.17-.03-.26-.55-2.73.29-6.34.08-9.13-.4-1.96-.2-3.89-.17-5.87-.37-3.38.31-7.47-.3-11-.16-1.97.48-3.91.14-5.85.05-2.56,0-5.17.08-7.72-.26-2.98-.16-5.99.13-9-.45-6.05-.19-13.49-.35-20.15,1.09,1.06,2.23,2.33,3.05,3.27l1.03.99c.92.86,1.32,1.34,1.55,1.56l.22.23c1.79,1.75,4.06,4.05,4.83,5.25.79,1.19,4.19,5.34,5.23,6.83,1.1,1.44,3.24,4.38,4.03,5.66.82,1.26,3,4.77,3.56,5.95.58,1.16,2.59,4.42,2.75,4.89.21.45,1.45,3.39,2.58,5.36.26.5.91,1.59,1.57,3.08.67,1.49,1.5,3.33,2.36,5.23.84,1.91,1.56,3.95,2.28,5.73.73,1.78,1.27,3.38,1.62,4.47.73,2.17,1.93,5.24,2.76,8.07.45,1.4.88,2.72,1.23,3.8.34,1.08.54,1.92.66,2.35l.41,2.23c.82,4.28.75,4.29.75,4.29.44,2.57.98,5.3,1.31,7.64ZM409.59,344.87c0,3.56-.68,7.33.07,10.89-.23,2.71.08,5.61-.26,8.32-.2,6.65-.1,13.2-.4,19.79.31,2.26.02,4.69-.08,7.06.22,2.14.24,4.03.19,6.4.01,1.33-.53,2.51-.43,3.73.12,1.38.44,3.34.46,4.91.04.62.04.99-.12,1.15-2.3.49-5.08.25-7.46.39-3.13-.02-6.47-.2-9.77.2-2.49-.05-4.89-.56-7.4-.21-.82.08-1.52.1-2.31.07-3.94-.21-7.85.28-11.7-.23-1.58-.16-3.09.45-5.02.32-2.56-.21-4.68-.14-7.18,0-1.83.02-3.59-.21-5.38.05-.68.13-1.63.23-2.56.16-.83-.09-1.73-.18-2.66-.23.06-.09.12-.19.19-.28.31-.6.64-1.29,1.07-1.8.31-.38.37-.65.46-1.05.08-.51.54-.89.81-1.31.64-1.21.58-2.61,1.02-4.02.22-.98,1.6-1.87,1.2-2.89-.21-.29-.49-.83-.41-.85,0-.27.24-.56.44-.84.59-1.07.16-2.6.54-3.79.76-2.15.22-4.39,1.04-6.48.39-1.52-.62-2.32-.33-3.93.22-1.14-.13-1.94-.38-2.93,0-.27-.03-.25.12-.74.19-.44,0-1.24-.15-2.04.46.19.94.34,1.4.47,1.18.44,1.81,1.2,3.11,1.61.31.12.64.31.92.43.46.21.8.13,1.23.15.47-.04,1.41.56,2.28.71.95.17,1.39.53,2.41.9,3.15.79,6.26,1.39,9.36,1.82,1.26-.25,2.3.22,3.8.2,1.21-.1,2.37-.22,3.66-.09.73.2,1.07.39,1.81.16,1.2-.47,2.88-.86,4.25-.99.99-.38,2.47-.42,3.12-.9.45-.56.5-1.74.71-2.62.46-2.92.24-5.61.45-8.66-.24-1.37-.58-2.83-.41-4.37-.56-3.49-1.26-6.29-2.05-9.48-.98-1.53-1.29-3.49-2.26-4.99-.6-1.31-1.13-2.39-1.97-3.15-.23-.33-.4-.66-.58-1.02.31.04.62.08.96.07,2.68-.06,5.46.1,8.13.43.66.12,1.27-.35,1.79-.38,1,.24,1.58-.24,2.48-.49,1.48-.15,3.67-.2,5.07-.66.77-.09,1.42-.2,2.16-.53,1.39-.48,2.84-.88,4.28-1.32.07.96.15,1.94.26,2.88ZM310.11,433.05c-.69,1.01-1.19,2.09-2.19,2.92-.57.79-1.42,1.81-1.84,2.6-.19-.43-.64-1-1.05-1.53-3.81-4.07-8.25-7.38-12.24-11.33-1.8-1.1-3.67-2.18-5.16-3.66-1.84-1.96-3.8-3.91-6.08-5.34-.28-.19-.6-.43-.78-.71-1-1.57-2.21-2.11-3.37-3.47-1.43-2.1-3.12-3.69-4.18-5.26-.39-.71-.75-1.94-1.13-2.69-.87-1.14-1.81-1.97-2.32-3.5-1.25-3.9-2.98-7.91-3.02-12.09,0-.64-.41-1.31-.55-1.88-.06-.36-.03-.38.01-.89.03-.36-.35-.68-.37-1.23.27-2.04.35-4.26.42-6.43.69.43,2.2,1.32,3.52,2.18l.24.08c.24.08.71.25,1.68.51.86.24,2.33,1.05,2.86,1.12,2.09.23,2.09.21,2.09.21,2.27,1.01,6.7,2.39,7.65,2.56.95.19,2.46.41,3.07.39.61,0,1.66.06,2.32.23l.22.1,1.51.7c2.24.36,6.97.57,8.22.69.56.09,1.19.16,1.77.22.02.32.03.66.04,1.1.03.88.1,1.92.05,2.82-.17.51-.24,1.02-.22,1.6.6,3.42-.28,7.22.34,10.44,0,0,0,0,0,0-.05,2.44,1.78,4.48,4.14,4.58,2.39.1,4.42-1.84,4.52-4.32.01-.35-.02-.68-.07-1.01-.28-2.37.16-5.3-.02-7.91-.18-1-.32-2.08.03-3.03-.03-1.26.3-2.48.56-3.69.54-.01.99-.04,1.25-.09,1.05-.15,2.88-.46,4.04-.87l1.22-.27c1.16-.28,1.87.45,3.73-.32l.58-.23c1.52-.1,6.07-1.39,7.37-1.66,1.3-.29,4.48-1.02,5.14-1.32.67-.26,2.62-.98,3.53-1.27.91-.27,4.33-1.62,5.23-1.99.64-.21,2.02-.66,3.03-1.07.11.77,0,1.59,0,2.39.08.49.48,1.42.45,2.05-.38,1.35-.67,3.09-.63,4.56-.32,1.3-.66,2.85-.64,4.46-.29.87-.99,1.04-.21,1.93.47.84-.78,1.55-.98,2.3-.39.93-.33,2.25-.72,3.13-.73,1.03-.84,1.76-1.49,2.66-1,1.77-2.17,3.36-3.13,5.18-.27.41-.77.74-1.05,1.07-.27.34-.33.69-.53,1.04-.42.61-.56.58-.93,1.03-.75,1.08-1.59,1.93-2.68,2.71-.63.64-1.14,1.64-2.15,2.19-.9.32-1.19,1.22-1.87,1.81-.78.6-1.55,1.27-2.36,1.8-.47.35-1.23.5-1.39,1.09-.14.88-.48.89-1.17,1.16-.59.3-1.05.99-1.63,1.28-.29.21-.34.21-.68.66-.29.49-1.27.58-1.88,1.11-.79.85-1.93,1.67-2.59,2.61-.26.54-1.27.87-1.61,1.13-.39.3-.72.69-1.04,1.06-1.37,1.41-3.13,2.64-4.86,3.56ZM202.87,397.21c-.01-3.02.25-6.33-.2-9.52.17-3.13.48-6.16.13-9.29.05-3.25.15-6.61-.01-9.77-.02-.86.18-1.75.26-2.6.16-1.58-.45-3.09-.32-5.02.21-2.56.14-4.68,0-7.18,0-2.11.25-4.04-.17-6.1-.06-1.74.11-3.65.19-5.55.53.09,1.07.18,1.6.35.98.22,1.87,1.6,2.89,1.2.29-.21.83-.49.85-.41.27,0,.56.24.84.44,1.07.59,2.6.16,3.79.54,2.15.76,4.39.22,6.48,1.04,1.52.39,2.32-.62,3.93-.33,1.14.22,1.94-.13,2.93-.38.27,0,.25-.03.74.12.41.17,1.12.02,1.86-.12,0,0,0,0,0,0,.03.05.07.1.1.16-.16.4-.28.81-.4,1.21-.44,1.18-1.2,1.81-1.61,3.11-.12.31-.31.64-.43.92-.21.46-.13.8-.15,1.23.04.47-.56,1.41-.71,2.28-.17.95-.53,1.39-.9,2.41-.79,3.15-1.39,6.26-1.82,9.36.25,1.26-.22,2.3-.2,3.8.1,1.21.22,2.37.09,3.66-.2.73-.39,1.07-.16,1.81.47,1.2.86,2.88.99,4.25.38.99.42,2.47.9,3.12.56.45,1.74.5,2.62.71,2.92.46,5.61.24,8.66.45,1.37-.24,2.83-.58,4.37-.41,3.49-.56,6.29-1.26,9.48-2.05,1.53-.98,3.49-1.29,4.99-2.26,1.31-.6,2.39-1.13,3.15-1.97.33-.23.66-.4,1.02-.58-.04.31-.08.62-.07.96.06,2.68-.1,5.46-.43,8.13-.12.66.35,1.27.38,1.79-.24,1,.24,1.58.49,2.48.15,1.48.2,3.67.66,5.07.09.77.2,1.42.53,2.16,1.31,3.79,1.99,8.03,4.6,11.18-.65.06-1.3.13-1.93.2-3.56,0-7.33-.68-10.89.07-2.71-.23-5.61.08-8.32-.26-6.65-.2-13.2-.1-19.79-.4-2.26.31-4.69.02-7.06-.08-1.95.2-3.67.24-5.89.2-2.13,0-3.92-.82-6.06-.2-2.4.46-1.81-.34-1.83-2.25,0-2.71-.2-5.21-.2-7.71ZM202.51,250.09c0-3.56.68-7.33-.07-10.89.23-2.71-.08-5.61.26-8.32.2-6.65.1-13.2.4-19.79-.31-2.26-.02-4.69.08-7.06-.22-2.14-.24-4.03-.19-6.39-.01-1.33.53-2.51.43-3.73-.12-1.38-.44-3.34-.46-4.91-.04-.62-.04-.99.12-1.15,2.3-.49,5.08-.25,7.46-.39,3.13.02,6.47.2,9.77-.2,2.49.05,4.89.56,7.4.21.82-.08,1.52-.1,2.31-.07,3.94.21,7.85-.28,11.7.23,1.58.16,3.09-.45,5.02-.32,2.56.21,4.68.14,7.18,0,1.83-.02,3.59.21,5.38-.05.68-.13,1.63-.23,2.56-.16.83.09,1.73.18,2.66.23-.06.09-.12.19-.19.28-.31.6-.64,1.29-1.07,1.8-.31.38-.37.65-.46,1.05-.08.51-.54.89-.81,1.31-.64,1.21-.58,2.61-1.02,4.01-.22.98-1.6,1.87-1.2,2.89.21.29.49.83.41.85,0,.27-.24.56-.44.84-.59,1.07-.16,2.6-.54,3.79-.76,2.15-.22,4.39-1.04,6.48-.39,1.52.62,2.32.33,3.93-.22,1.14.13,1.94.38,2.93,0,.27.03.25-.12.74-.19.44,0,1.24.15,2.04-.46-.19-.94-.34-1.4-.47-1.18-.44-1.81-1.2-3.11-1.61-.31-.12-.64-.31-.92-.43-.46-.21-.8-.13-1.23-.15-.47.04-1.41-.56-2.28-.71-.95-.17-1.39-.53-2.41-.9-3.15-.79-6.26-1.39-9.36-1.82-1.26.25-2.3-.22-3.8-.2-1.21.1-2.37.22-3.66.09-.73-.2-1.07-.39-1.81-.16-1.2.47-2.88.86-4.25.99-.99.38-2.47.42-3.12.9-.45.56-.5,1.74-.71,2.62-.46,2.92-.24,5.61-.45,8.66.24,1.37.58,2.83.41,4.37.56,3.49,1.26,6.29,2.05,9.48.98,1.53,1.29,3.49,2.26,4.99.6,1.31,1.13,2.39,1.97,3.15.23.33.4.66.58,1.02-.31-.04-.62-.08-.96-.07-2.68.06-5.46-.1-8.13-.43-.66-.12-1.27.35-1.79.38-1-.24-1.58.24-2.48.49-1.48.15-3.67.2-5.07.66-.77.09-1.42.2-2.16.53-1.39.48-2.84.88-4.28,1.32-.07-.96-.15-1.94-.26-2.88ZM301.99,161.92c.69-1.01,1.19-2.09,2.19-2.92.57-.79,1.42-1.81,1.84-2.6.19.43.64,1,1.05,1.53,3.81,4.07,8.25,7.38,12.24,11.33,1.8,1.1,3.67,2.18,5.16,3.66,1.84,1.96,3.8,3.91,6.08,5.34.28.19.6.43.78.71,1,1.57,2.21,2.11,3.37,3.47,1.43,2.1,3.12,3.69,4.18,5.26.39.71.75,1.94,1.13,2.69.87,1.14,1.81,1.97,2.32,3.5,1.25,3.9,2.98,7.91,3.02,12.09,0,.64.41,1.31.55,1.88.06.36.03.38-.01.89-.03.36.35.68.37,1.23-.27,2.07-.35,4.33-.43,6.53-.22-.13-.43-.25-.65-.36-1.03-.46-2.08-.76-3.13-1.13l-.16-.06c-.18-.14-1.77-1.14-2.45-1.31-.33-.09-1.29-.39-2.29-.72-1.02-.3-2.11-.61-2.68-.83-1.12-.49-5.13-1.54-6.28-1.8-1.17-.2-4.2-1-5.02-1.18-.4-.1-2.12-.5-4.01-.8-1.9-.24-3.95-.55-4.97-.51-.97-.02-2.37-.05-3.62-.08-.02-.32-.03-.67-.04-1.13-.03-.88-.1-1.92-.05-2.82.17-.51.24-1.02.22-1.6-.6-3.42.28-7.22-.34-10.44,0,0,0,0,0,0,.05-2.44-1.78-4.48-4.14-4.58-2.39-.1-4.42,1.84-4.52,4.32-.01.35.02.68.07,1.01.28,2.37-.16,5.3.02,7.91.18,1,.32,2.08-.03,3.03.04,1.46-.41,2.87-.68,4.25-1.16.08-2.53.22-3.8.31-1.71.18-3.22.4-3.73.4-1.01-.04-4.91.62-6.05.87-1.13.3-4.04,1.27-4.92,1.52-.45.1-1.95.49-3.42.92-1.45.49-2.87.99-3.22,1.15-.71.29-3.28,1.77-4.09,2.22-.81.46-2.05.55-2.26.43-.2-.11-.8.16-1.32.6l-.39.16c-1.06.43-1.05.45-1.05.45-.1.04-.23.09-.35.15-.52-1.04-.3-2.21-.28-3.35-.08-.49-.48-1.42-.45-2.05.38-1.35.67-3.09.63-4.56.32-1.3.66-2.85.64-4.46.29-.87.99-1.04.21-1.93-.47-.84.78-1.55.98-2.3.39-.93.33-2.25.72-3.13.73-1.03.84-1.76,1.49-2.66,1-1.77,2.17-3.36,3.13-5.18.27-.41.77-.74,1.05-1.07.27-.34.33-.69.53-1.04.42-.61.56-.58.93-1.03.75-1.08,1.59-1.93,2.68-2.71.63-.64,1.14-1.64,2.15-2.19.9-.32,1.19-1.22,1.87-1.81.78-.6,1.55-1.27,2.36-1.8.47-.35,1.23-.5,1.39-1.09.14-.88.48-.89,1.17-1.16.59-.3,1.05-.99,1.63-1.28.29-.21.34-.21.68-.66.29-.49,1.27-.58,1.88-1.11.79-.85,1.93-1.67,2.59-2.61.26-.54,1.27-.87,1.61-1.13.39-.3.72-.69,1.04-1.06,1.37-1.41,3.13-2.64,4.86-3.56ZM409.04,190.04c0,2.71.2,5.21.2,7.71.01,3.02-.25,6.33.2,9.52-.17,3.13-.48,6.16-.13,9.29-.05,3.25-.15,6.61.01,9.77.02.86-.18,1.75-.26,2.6-.16,1.58.45,3.09.32,5.02-.21,2.56-.14,4.68,0,7.18,0,2.11-.25,4.04.17,6.1.06,1.74-.11,3.65-.19,5.55-.53-.09-1.07-.18-1.6-.35-.98-.22-1.87-1.6-2.89-1.2-.29.21-.83.49-.85.41-.27,0-.56-.24-.84-.44-1.07-.59-2.6-.16-3.79-.54-2.15-.76-4.39-.22-6.48-1.04-1.52-.39-2.32.62-3.93.33-1.14-.22-1.94.13-2.93.38-.27,0-.25.03-.74-.12-.44-.19-1.24,0-2.04.15.19-.46.34-.94.47-1.4.44-1.18,1.2-1.81,1.61-3.11.12-.31.31-.64.43-.92.21-.46.13-.8.15-1.23-.04-.47.56-1.41.71-2.28,1.44-3.7,2.18-7.9,2.72-11.77-.25-1.26.22-2.3.2-3.8-.1-1.21-.22-2.37-.09-3.66.2-.73.39-1.07.16-1.81-.47-1.2-.86-2.88-.99-4.25-.38-.99-.42-2.47-.9-3.12-.56-.45-1.74-.5-2.62-.71-2.92-.46-5.61-.24-8.66-.45-1.37.24-2.83.58-4.37.41-3.49.56-6.29,1.26-9.48,2.05-1.53.98-3.49,1.29-4.99,2.26-1.31.6-2.39,1.13-3.15,1.97-.33.23-.66.4-1.02.58.04-.31.08-.62.07-.96-.06-2.68.1-5.46.43-8.13.12-.66-.35-1.27-.38-1.79.24-1-.24-1.58-.49-2.48-.15-1.48-.2-3.67-.66-5.07-.09-.77-.2-1.42-.53-2.16-1.31-3.79-1.99-8.03-4.6-11.18.65-.06,1.3-.13,1.93-.2,3.56,0,7.33.68,10.89-.07,2.71.23,5.61-.08,8.32.26,6.65.2,13.2.1,19.79.4,2.26-.31,4.69-.02,7.06.08,1.95-.2,3.67-.24,5.89-.2,2.13,0,3.92.82,6.06.2,2.4-.46,1.81.34,1.83,2.25ZM387.62,285.35c.15,1.24.27,2.27.33,2.78l.24,1.03.25,1.34c.05.88.11,1.86.16,2.73,0,.87-.02,1.63-.05,2.06-.03.43.02,1.41.03,2.37-.01.96-.02,1.91-.06,2.28l-.07.7-.06.65c-.05.69-.22,3.08-.39,5.3l-.18,1.99c-.14,1.69-.16,1.69-.16,1.69-.28,1.87-.53,3.54-.56,3.7-.02.16-.39,1.26-.68,2.25-.24,1-1.24,4.16-1.56,4.95-.28.81-1.29,2.7-1.24,3.04.03.34-.29,1.81-.54,2.38-.25.57-.74,2.87-1.31,4.05-.49,1.21-2.75,5.87-3.84,7.62-.91,1.86-4.58,6.88-5.21,7.56-.55.75-2.04,3.08-2.47,3.54-.42.46-1.21,1.34-1.5,1.62-.15.14-.69.8-1.38,1.67-.72.85-1.61,1.9-2.41,2.84l-.2.2c-.2.21-.63.57-1.49,1.33l-1.25,1.1c-.9,1.09-2.57,2.54-3.63,3.26l-.98.72-.99.73c-.99.98-2.58,1.95-3.39,2.3-.4.18-1.33.96-2.41,1.81-.54.43-1.1.89-1.63,1.32-.55.4-1.08.77-1.52,1.05l-1.66.52c-.14.05-.67.42-.82.56l-.23.24c-.1.22-.67.7-1.27,1.08-.58.41-2.89,1.13-3.74,1.4-.83.34-3.96,1.57-4.79,1.81-.83.25-2.61.92-3.22,1.16-.6.28-3.52.93-4.7,1.19-1.19.24-5.34,1.44-6.74,1.53l-.52.22c-1.69.74-2.35,0-3.41.27l-1.12.26c-1.05.4-2.73.7-3.69.84-.96.19-4.56.04-5.49.03v-.02c-.54.14-2.54-.34-2.87-.39-.33-.04-1.87-.13-3.01-.33-1.14-.12-5.47-.29-7.52-.61l-1.38-.68-.2-.1c-.6-.16-1.56-.21-2.12-.19-.56.03-1.95-.17-2.82-.33-.87-.16-4.91-1.43-6.99-2.37,0,0,0,.02-1.93-.15-.49-.06-1.83-.81-2.62-1.02-.89-.23-1.32-.39-1.54-.45l-.22-.07c-1.3-.87-2.82-1.78-3.36-2.13-.54-.33-2.74-1.25-3.42-1.79l-.6-.49c-.77-.63-1.62-.25-2.43-1.32-.07-.1-1.31-.64-1.96-1.05l-.91-.59c-.92-.72-1.88-1.59-2.2-1.86-.15-.14-.77-.55-1.48-1.08-.7-.54-1.51-1.17-2.1-1.66-1.18-.98-4.56-3.34-4.79-3.7-.25-.34-1.53-1.97-2.07-2.92l-1.1-.48-1.7-.75c-1.37-1.99-3.06-4.54-3.78-5.68-.38-.55-1.33-1.68-2.21-2.83-.92-1.12-1.8-2.22-2.11-2.65-.34-.42-.89-1.23-1.44-2.05-.52-.83-1.01-1.69-1.31-2.12l-.21-.65-.24-.71c-.11-.65-.63-1.74-1.22-2.41l-.48-.56-.08-.1c-.24-.35-.51-1.05-.59-1.56-.1-.5-.64-2.26-.98-2.71-.32-.45-1.93-4.55-2.07-5.41-.2-.84-.9-2.76-1.03-3.6-.15-.83-.84-2.6-.95-3.3-.12-.69-.81-3.13-1.09-3.99-.14-.43-.27-1.6-.38-2.87-.12-1.27-.1-2.67-.18-3.55l-.59-1.13c-.06-.12-.07-.75-.08-1.12l-.06-2.35c-.02-2.58-.11-5.68-.22-6.91-.2-1.24.65-5.65.84-7.15l.08-1.23.07-1.15c.11-1.26.49-3.3.61-4.56.15-1.27,1.43-4.33,1.57-4.73l.05-.29.57-3.4c1.28-3.71,2.86-7.4,3.27-8.29.2-.45.71-1.49,1.28-2.57.59-1.08,1.3-2.16,1.78-2.77l.09-1.53.06-.67c.96-1.35,2.01-2.7,2.42-2.98.39-.28,1.4-2.63,1.76-3.21.36-.58,1.86-2.08,2.26-2.59l.13-.29.72-1.52c1.13-1.1,2.74-2.58,3.51-3.36.72-.82,2.8-3.21,3.25-3.86.48-.63,2.58-2.25,2.84-2.56.26-.31,1.26-1.41,1.51-1.81.27-.39,1.68-1.35,1.94-1.71l1.13-.65,1.24-.71c1.66-1.36,3.94-3.15,5.07-3.92,1.09-.86,4.36-2.4,4.87-2.73.5-.36,2.79-1.35,3.83-1.77,0,0,0-.02.96-.41l.35-.14c.48-.42,1.02-.66,1.21-.54.2.13,1.34.07,2.08-.35.74-.42,3.07-1.81,3.72-2.08.32-.15,1.62-.61,2.94-1.06,1.34-.39,2.71-.75,3.12-.84.81-.22,3.46-1.13,4.49-1.42,1.04-.22,4.6-.83,5.53-.78.46,0,1.84-.2,3.41-.37,1.57-.11,3.33-.32,4.53-.33l1.5-.28,1.35-.25c.83.15,1.83.46,2.22.56.2.06,1.2.07,2.39.05,1.19.02,2.56.05,3.49.07.94-.04,2.81.25,4.55.46,1.73.27,3.3.64,3.67.74.74.17,3.52.91,4.58,1.09,1.05.23,4.72,1.19,5.74,1.64.52.2,1.52.48,2.45.75.92.3,1.8.57,2.1.65.62.15,2.06,1.09,2.23,1.22l.14.05c.96.34,1.93.6,2.87,1.02.82.4,1.6,1.06,2.39,1.43,1.21.56,1.2.57,1.2.57,1.31.71,3.07,1.67,3.91,2.12.84.47,2.49,1.94,2.75,1.95l.31.1.22.07c.35.21,1.56,1.14,2.69,2.06.54.5,2.14,1.68,3.65,2.92,1.49,1.26,2.95,2.49,3.3,2.93l.54.7.68.87c.81.51,1.9,1.68,2.53,2.48l.57.5c.99.89.97.91.97.91,1.03.85,2.27,2.03,2.65,2.69.38.66,2.18,2.85,2.77,3.61.61.74,1.73,2.3,2.16,2.97.45.66,1.55,2.55,1.81,3.19.28.63,1.39,2.32,1.43,2.6.07.26.64,1.86,1.28,2.88.35.5,1.2,2.36,2.08,4.38.82,2.04,1.69,4.23,2.04,5.39.83,2.26,2.41,6.54,2.64,7.45l.17,1.19c.34,2.28.31,2.28.31,2.28.23,1.36.51,2.8.69,4.03ZM383.79,372.61c-.42.21-1.13.64-1.65.74-.52.11-.81-.2-1.4-.25-1.61-.19-3.4.31-4.96-.14-2.78.13-5.39-.79-8.24-1.24-1.83-.51-2.97-1.1-4.62-1.62-.55-.19-1.03-.02-1.52-.16-.34-.12-.66-.27-.98-.44.24-.2.48-.4.68-.6l1.08-.8,1.07-.79c1.16-.8,2.98-2.38,3.97-3.56l1.36-1.2c.93-.82,1.4-1.23,1.62-1.45l.22-.22c.88-1.03,1.86-2.17,2.65-3.09.76-.95,1.35-1.67,1.51-1.82.32-.31,1.17-1.27,1.63-1.78.45-.48,1.98-2.83,2.63-3.74,1.33,1.61,1.9,3.93,2.88,5.76.8,2.22,1.09,4.47,1.63,6.77.47,1.4,0,2.99.44,4.29.23.76.15,1.57.09,2.35-.12,1.35.27,2.13-.1,3ZM230.43,372.18c.19-1.61-.31-3.4.14-4.96-.13-2.78.79-5.39,1.24-8.24.51-1.83,1.1-2.97,1.62-4.62.19-.55.02-1.03.16-1.52.12-.35.29-.7.47-1.03.36.46.67.85.85,1.11.79,1.24,2.66,4,4.18,6.15l1.8.86,1.18.56c.61,1.03,2.03,2.78,2.3,3.15.26.39,3.91,3,5.21,4.06.65.54,1.53,1.23,2.3,1.82.45.33.85.62,1.15.83-1.6,1.3-3.89,1.86-5.7,2.82-2.22.8-4.47,1.09-6.77,1.63-1.4.47-2.99,0-4.29.44-.76.23-1.57.15-2.35.09-1.35-.12-2.13.27-3-.1-.21-.42-.64-1.13-.74-1.65-.11-.52.2-.81.25-1.4ZM228.31,222.35c.42-.21,1.13-.64,1.65-.74.52-.11.81.2,1.4.25,1.61.19,3.4-.31,4.96.14,2.78-.13,5.39.79,8.24,1.24,1.83.51,2.97,1.1,4.62,1.62.55.19,1.03.02,1.52.16.48.17.94.42,1.39.68-.1.08-.2.16-.3.24l-1.34.79-1.22.72c-.29.38-1.83,1.45-2.13,1.87-.29.43-1.39,1.61-1.68,1.95-.29.33-2.57,2.12-3.1,2.8-.5.71-2.78,3.3-3.57,4.2-.84.85-2.58,2.49-3.8,3.7l-.81,1.64-.14.31c-.13.16-.36.43-.64.73-1.42-1.61-1.99-4.01-3-5.9-.8-2.22-1.09-4.47-1.63-6.77-.47-1.4,0-2.99-.44-4.29-.23-.76-.15-1.57-.09-2.35.12-1.35-.27-2.13.1-3ZM381.54,227.75c.13,2.78-.79,5.39-1.24,8.24-.51,1.83-1.1,2.97-1.62,4.62-.19.55-.02,1.03-.16,1.52-.11.32-.26.63-.42.93-.77-.97-1.64-2.08-1.91-2.53-.42-.72-1.76-2.02-2.88-2.95,0,0,.02-.02-1.05-1l-.61-.55c-.69-.87-1.89-2.15-2.76-2.72l-.76-.94-.6-.75c-.38-.47-1.97-1.82-3.6-3.2-1.65-1.36-3.4-2.65-3.99-3.19-.27-.22-.54-.44-.81-.65,1.6-1.27,3.86-1.82,5.65-2.78,2.22-.8,4.47-1.09,6.77-1.63,1.4-.47,2.99,0,4.29-.44.76-.23,1.57-.15,2.35-.09,1.35.12,2.13-.27,3,.1.21.42.64,1.13.74,1.65.11.52-.2.81-.25,1.4-.19,1.61.31,3.4-.14,4.96ZM195.22,265.41c.97-1,2.53-1.3,3.76-1.91,1.14-.87,1.97-1.81,3.5-2.32,3.9-1.25,7.91-2.98,12.09-3.02,1.03,0,1.7-.82,2.78-.54.36.03.68-.35,1.23-.37.85.02,1.99.32,3,.27,1.33.08,2.68.13,4.02.17-.25.4-.49.82-.72,1.25-.62,1.19-1.17,2.33-1.39,2.82-.46.97-2.18,5.01-3.56,9.08l-.66,3.71-.06.32c-.15.44-1.5,3.8-1.67,5.18-.15,1.38-.56,3.61-.69,4.99l-.09,1.25-.09,1.34c-.14,1.07-.55,3.47-.77,5.4-.26.01-.54.02-.89.03-.88.03-1.92.1-2.82.05-.51-.17-1.02-.24-1.6-.22-3.42.6-7.22-.28-10.44.34,0,0,0,0,0,0-2.44-.05-4.48,1.78-4.58,4.14-.1,2.39,1.84,4.42,4.32,4.52.34.01.68-.02,1.01-.07,2.37-.28,5.3.16,7.91-.02,1-.18,2.08-.32,3.03.03,1.43-.04,2.82.4,4.18.66,0,.16,0,.32,0,.48l.07,2.57c.01.41.03,1.09.09,1.23l.6,1.25c.09.96.09,2.49.23,3.88.13,1.39.28,2.66.43,3.13.29.95,1.03,3.62,1.17,4.37.13.76.87,2.71,1.04,3.61.15.91.91,3.01,1.13,3.93.16.94,1.92,5.41,2.26,5.91.36.5.97,2.41,1.09,2.95.09.46.32,1.06.54,1.47-.82.16-1.7.03-2.56.02-.49.08-1.42.48-2.05.45-1.35-.38-3.09-.67-4.56-.63-1.3-.32-2.85-.66-4.46-.64-.87-.29-1.03-.99-1.93-.21-.84.47-1.55-.78-2.3-.98-.93-.39-2.25-.33-3.13-.72-.39-.17-.71-.44-.99-.63-.51-.35-.98-.24-1.5-.72-1.68-1.04-3.61-2.3-5.36-3.26-.73-.66-1.19-1.3-2.11-1.59-.83-.63-1.24-1.24-2.07-1.73-.63-.36-1.14-1.33-1.68-1.88-.64-.63-1.64-1.14-2.19-2.15-.32-.9-1.22-1.19-1.81-1.87-.6-.78-1.27-1.55-1.8-2.36-.35-.47-.5-1.23-1.09-1.39-.88-.14-.89-.48-1.16-1.17-.3-.59-.99-1.05-1.28-1.63-.21-.29-.21-.34-.66-.68-.49-.29-.58-1.27-1.11-1.88-.85-.79-1.67-1.93-2.61-2.59-.54-.26-.87-1.27-1.13-1.61-.83-.93-1.86-1.63-2.54-2.73-.78-1.02-1.54-2.02-2.09-3.16-.4-.42-1.08-.58-1.53-.93-1.19-1.02-2.54-2.31-3.88-3.04-.36-.12.39-.2.57-.47.18-.18.52-.39.86-.66,4.07-3.81,7.38-8.25,11.33-12.24,1.62-3.02,3.52-5.07,5.94-7.4,1-1.19,2.3-2.47,3.06-3.84.19-.28.43-.6.71-.78.87-.65,1.41-1.12,2.05-1.83,1.39-1.98,4.05-3.24,5.62-4.95ZM416.88,329.55c-.97,1-2.53,1.3-3.76,1.91-1.14.87-1.97,1.81-3.5,2.32-3.9,1.25-7.91,2.98-12.09,3.02-1.03,0-1.7.82-2.78.54-.36-.03-.68.35-1.23.37-.85-.02-1.99-.32-3-.27-1.13-.07-2.27-.11-3.4-.15.76-1.53,1.42-2.95,1.67-3.56.62-1.29,1.19-3.79,1.46-4.42.27-.63.64-2.23.62-2.59-.04-.37,1.03-2.45,1.34-3.33.35-.86,1.43-4.33,1.69-5.42.31-1.07.7-2.28.72-2.46.03-.18.31-2,.62-4.04,0,0,.02,0,.18-1.85l.2-2.17c.15-2.01.3-4.12.38-5.22.29-.01.6-.02,1-.04.88-.03,1.92-.1,2.82-.05.51.17,1.02.24,1.6.22,3.42-.6,7.22.28,10.44-.34,0,0,0,0,0,0,2.44.05,4.48-1.78,4.58-4.14.1-2.39-1.84-4.42-4.32-4.52-.34-.01-.68.02-1.01.07-2.37.28-5.3-.16-7.91.02-1,.18-2.08.32-3.03-.03-1.35.03-2.65-.34-3.93-.61-.06-.94-.12-1.99-.18-2.94l-.26-1.47-.25-1.12c-.07-.56-.2-1.68-.37-3.04-.19-1.35-.5-2.93-.75-4.41,0,0,.04,0-.35-2.49l-.2-1.3c-.25-1-1.94-5.69-2.85-8.16-.39-1.26-1.33-3.66-2.24-5.89-.73-1.67-1.44-3.24-1.91-4.14.98-.38,2.05-.2,3.11-.18.49-.08,1.42-.48,2.05-.45,1.35.38,3.09.67,4.56.63,1.3.32,2.85.66,4.46.64.87.29,1.04.99,1.93.21.84-.47,1.55.78,2.3.98.93.39,2.25.33,3.13.72.39.17.71.44.99.63.51.35.98.24,1.5.72,1.68,1.04,3.61,2.3,5.36,3.26.73.66,1.19,1.3,2.11,1.59.83.63,1.24,1.24,2.07,1.73.63.36,1.14,1.33,1.68,1.88.64.63,1.64,1.14,2.19,2.15.32.9,1.22,1.19,1.81,1.87.6.78,1.27,1.55,1.8,2.36.35.47.5,1.23,1.09,1.39.88.14.89.48,1.16,1.17.3.59.99,1.05,1.28,1.63.21.29.21.34.66.68.49.29.58,1.27,1.11,1.88.85.79,1.67,1.93,2.61,2.59.54.26.87,1.27,1.13,1.61.83.93,1.86,1.63,2.54,2.73.78,1.02,1.54,2.02,2.09,3.16.4.42,1.08.58,1.53.93,1.19,1.02,2.54,2.31,3.88,3.04.36.12-.39.2-.57.47-.18.18-.52.39-.86.66-4.07,3.81-7.38,8.25-11.33,12.24-1.62,3.02-3.52,5.07-5.94,7.4-1,1.19-2.3,2.47-3.06,3.84-.19.28-.43.6-.72.78-.87.65-1.41,1.12-2.05,1.83-1.39,1.98-4.05,3.24-5.62,4.95ZM405.61,180.31c-1.34.16-2.53-.42-3.95-.42-3.97-.07-7.37.31-11.2-.05-4.73.34-9.95-.19-14.79-.15-4.99.09-10.19-.22-15.21-.36-.96-.01-1.66.39-2.8.34-2.8,0-5.13-.05-7.82-.29-1.67.07-3.01.35-4.59.36-.85.06-1.96.02-3.03-.05-.96-1.28-1.8-2.63-3.06-3.62-1.43-.93-2.2-2.63-3.53-3.52-3.08-1.86-4.96-4.61-7.87-6.86-1.09-.98-2.38-1.58-3.58-2.37-.93-1.07-2.34-2.14-3.31-3.1-2.87-2.52-5.89-5-8.45-7.87-.55-.75-1.21-1.71-1.88-2.61,0-.1,0-.19,0-.29v-1.05c0-.57-.01-1.78-.02-2.07,0-.3,0-1.29,0-1.59,0-.3,0-1.02,0-1.2,0-.15-.03-.56-.04-.66,0-.1.03-.45.02-.53,0-.07,0-.33,0-.63.83.02,1.92.03,3.12.04,2.25.1,4.85.21,6.61.29,1.77-.01,5.31.54,8.61.94,3.28.5,6.27,1.16,6.97,1.3.35.07.95.2,1.68.36.72.18,1.58.39,2.45.6,1.75.42,3.57.84,4.58,1.04,1.99.48,8.92,2.34,10.87,3.16.99.36,2.87.93,4.62,1.49,1.73.62,3.36,1.19,3.93,1.37s1.57.64,2.47,1.08c.9.44,1.67.92,1.85,1.01l.27.11c1.78.71,3.56,1.34,5.34,2.14,1.54.77,3.12,1.84,4.6,2.56,2.26,1.09,2.25,1.11,2.25,1.11,2.44,1.41,5.8,3.17,7.35,4.13,1.56.94,4.86,3.46,5.28,3.57l.53.26.39.19c.64.42,2.97,2.14,5.16,3.82,1.04.91,4.08,3.17,6.92,5.53.88.75,1.74,1.49,2.55,2.18-1.15.11-2.26.24-3.27.32ZM301.95,121.47h0s0-.08,0-.1c0-.01.02-.08.04-.16v.26s-.01,0-.03,0ZM301.98,122.14v.12s0-.05,0-.05c0-.02,0-.05,0-.07ZM301.93,120.59c0-.19,0-.47,0-.58,0-.05,0-.15,0-.24.01,0,.03,0,.04,0v1.23c-.02-.13-.06-.3-.05-.41ZM301.28,141.44c-.06.13-.06.13-.06.13.02.23.09.75.08.9,0,.16,0,.52,0,.82v1.66c0,.51-.02,1.34-.03,1.88l.06.44s-.01.1-.02.16v.12c0,.12.02.39.01.41-.01.03-.02.17-.02.31v.13s.01.59.01.59v.12c0,.13,0,.4,0,.46,0,.07-.02.22,0,.36,0,.03,0,.15,0,.29-.96,1.07-1.91,2.22-2.62,3.39-.63.71-1.43,1.42-1.69,2.25-.06.1-.18.31-.24.42-1.86,1.21-3.84,2.27-5.26,4.09-.46.5-1.16.67-1.66,1.1-.5.66-1.02,1.27-1.72,1.8-.74.92-1.64,1.49-2.7,1.92-.19.16-.16.13-.47.52-.31.37-.97.64-1.42,1.15-.47.66-1.35.57-1.75,1.2-.15.7-.36,1.05-1.17,1.41-1.65,1.05-3.05,2.09-4.16,3.63-1.84.91-2.52,2.49-4.02,3.62-.27.2-.61.46-.86.69-.5.58-1.09,1.44-1.69,2.1-3.16.4-6.75-.1-9.88-.04-1.97.4-3.89.2-5.87.17-2.05.05-3.61.26-6.01.08-1.7-.2-3.6,0-5.22.24-1.48.14-3.04-.42-4.47-.24-2.94.14-5.93.03-8.87,0-2.98.26-5.99.16-9.01-.13-3.41.35-6.65.25-10.03.2-2.42.07-4.77.14-7.14.16.21-.22.4-.42.51-.56.58-.65,3.13-2.63,3.71-3.21l2.03-1.36,2.24-1.5c3.2-2.52,7.59-5.8,9.78-7.21,1.09-.71,3.05-2.03,4.99-3.02,1.91-1.04,3.67-1.98,4.17-2.28.97-.65,5.25-2.62,7.18-3.52l.22-.11c.22-.12.68-.31,1.59-.7l.67-.29c.97-.64,2.01-1.11,2.3-1.04.3.09,2.32-.39,3.78-1.1,1.46-.69,6.02-3.01,7.27-3.45.61-.25,3.09-1.11,5.6-1.96,2.54-.75,5.14-1.44,5.92-1.64,1.53-.48,6.63-1.89,8.59-2.41.98-.26,3.17-.58,5.32-.95,1.07-.17,2.14-.34,3.05-.49.91-.08,1.66-.15,2.09-.19.87-.04,3.48-.42,6.46-.74,2.99-.2,6.31-.59,8.59-.61,0,0,0,0,1.84-.2ZM149.94,302.4c.23-.02.75-.09.9-.08.16,0,.51,0,.82,0h1.66c.51,0,1.34.02,1.88.03l.44-.06s.1.01.16.02h.12c.12,0,.39-.02.41-.01.03.01.17.02.31.02h.13s.59-.01.59-.01h.12c.13,0,.4,0,.46,0,.08,0,.22.02.36,0,.05,0,.33,0,.59,0,1.04.93,2.16,1.84,3.29,2.53.71.63,1.42,1.43,2.25,1.69.1.06.31.18.42.24,1.21,1.86,2.27,3.84,4.09,5.26.5.46.67,1.16,1.1,1.66.66.5,1.27,1.02,1.8,1.72.92.74,1.49,1.64,1.92,2.7.16.19.13.16.52.47.37.31.64.97,1.15,1.42.66.47.57,1.35,1.2,1.75.7.15,1.05.36,1.41,1.17,1.05,1.65,2.08,3.05,3.63,4.16.9,1.84,2.49,2.52,3.62,4.02.2.27.46.61.69.86.76.65,2,1.46,2.65,2.24.6.61,1.02.43,1.48.83,1.35,1.49,3.11,2.31,4.81,3.35.01.09.02.18.03.26.55,2.73-.29,6.34-.08,9.13.4,1.96.2,3.89.17,5.87.37,3.38-.31,7.47.3,11,.16,1.97-.48,3.91-.14,5.85-.05,2.56,0,5.17-.08,7.72.26,2.98.16,5.99-.13,9,.45,6,.19,13.4.34,20.02-.1-.14-.22-.28-.3-.4l-1.79-1.2-2.74-1.85c-1.42-1.75-2.92-3.84-4.35-5.67-1.43-1.83-2.54-3.59-3.31-4.6-.37-.51-1-1.31-1.75-2.24-.72-.96-1.55-2.06-2.37-3.15-.83-1.08-1.65-2.16-2.34-3.06-.66-.92-1.19-1.67-1.48-2.08-.59-.81-1.62-2.37-2.64-3.93-.96-1.6-1.91-3.19-2.42-4.03l-.51-1.16-.56-1.28c-.39-1.13-1.38-3.19-2.33-4.54l-.77-1.12-.13-.2c-.2-.34-.45-.84-.68-1.35-.21-.53-.41-1.08-.55-1.53-.28-.9-1.5-4.14-2.04-5.04-.51-.9-3.59-8.63-3.92-10.24-.44-1.57-1.75-5.21-2.05-6.78-.34-1.55-1.53-4.95-1.77-6.26-.25-1.3-1.49-5.94-1.9-7.6-.22-.83-.52-3.02-.84-5.41-.32-2.39-.42-5.02-.61-6.69l-.73-2.19c-.08-.23-.12-1.41-.16-2.12l-.22-4.44c-.04-1.5-.08-3.09-.12-4.64,0,0,0,0,0,0ZM206.5,414.65c1.34-.16,2.53.42,3.95.42,3.97.07,7.37-.31,11.2.05,4.73-.34,9.95.19,14.79.15,4.99-.09,10.19.22,15.21.36.96.01,1.66-.39,2.8-.34,2.8,0,5.13.05,7.82.29,1.67-.07,3.01-.35,4.59-.36.85-.06,1.96-.02,3.03.05.96,1.28,1.8,2.63,3.06,3.62,1.43.93,2.2,2.63,3.53,3.52,3.08,1.86,4.96,4.61,7.87,6.86,1.09.98,2.38,1.58,3.58,2.37.93,1.07,2.34,2.14,3.31,3.11,2.87,2.52,5.89,5,8.45,7.87.52.71,1.14,1.61,1.77,2.46,0,.23,0,.48,0,.73v1.05c0,.57.01,1.78.02,2.07,0,.3,0,1.29,0,1.59,0,.3,0,1.02,0,1.2,0,.15.03.56.04.66,0,.1-.03.45-.02.53,0,.08,0,.48,0,.86-.42-.05-.74-.09-.89-.1-.32-.02-1.2-.07-2.28-.13-1.08-.08-2.34-.23-3.42-.35-.54-.06-1.46-.13-2.59-.2-1.13-.07-2.48-.13-3.88-.3-2.79-.32-5.82-.5-7.75-.89l-2.67-.91-.4-.14c-1.15-.27-2.96-.44-3.99-.55-1.04-.08-3.64-.56-5.27-.9-.83-.13-3.14-.83-5.77-1.64-2.65-.74-5.52-1.85-7.53-2.61l-.44-.08c-.43-.1-1.33-.22-3.06-.62-.88-.21-3.49-1.47-4.94-1.94-1.65-.52-2.44-.85-2.84-1l-.4-.15c-2.53-1.44-5.5-2.98-6.53-3.61-1.04-.6-5.14-2.44-6.46-3.38l-1.2-.83c-1.53-1.08-2.81-.92-4.55-2.55-.16-.16-2.4-1.34-3.62-2.12l-1.72-1.11c-1.79-1.3-3.67-2.85-4.29-3.33-.32-.23-1.45-1.05-2.81-2.04-1.31-1.04-2.84-2.24-3.98-3.14-1.16-.88-3.22-2.57-5.09-4.06-.04-.03-.08-.06-.12-.09,1.23-.12,2.42-.26,3.49-.34ZM310.06,475.25c0,.11,0,.36,0,.46-.01,0-.03,0-.04,0v-1.44c.02.13.06.3.05.41,0,.19,0,.47,0,.58ZM310.05,473.79h0s0,.08,0,.1c0,.01-.02.08-.04.16v-.26s.01,0,.03,0ZM310.02,473.11v-.12s0,.05,0,.05c0,.02,0,.05,0,.07ZM310.73,454.16s-.01-.07-.03-.15c0-.04,0-.16,0-.17l.06-.15c-.02-.23-.09-.75-.08-.9,0-.16,0-.52,0-.82v-1.66c0-.51.02-1.34.03-1.88l-.06-.44s.01-.1.02-.16v-.12c0-.12-.02-.39-.01-.41.01-.03.02-.17.02-.31v-.13s-.01-.59-.01-.59v-.12c0-.13,0-.4,0-.46,0-.07.02-.22,0-.36,0-.04,0-.25,0-.47,1-1.1,1.99-2.3,2.73-3.51.63-.71,1.43-1.42,1.69-2.25.06-.1.18-.31.24-.42,1.86-1.21,3.84-2.27,5.26-4.09.46-.5,1.16-.67,1.66-1.1.5-.66,1.02-1.27,1.72-1.8.74-.92,1.64-1.49,2.7-1.92.19-.16.16-.13.47-.52.31-.37.97-.64,1.42-1.15.47-.66,1.35-.57,1.75-1.2.15-.7.36-1.05,1.17-1.41,1.65-1.05,3.05-2.08,4.16-3.63,1.84-.91,2.52-2.49,4.02-3.62.27-.2.61-.46.86-.69.5-.58,1.09-1.44,1.69-2.1,3.16-.4,6.75.1,9.88.04,1.97-.4,3.89-.2,5.87-.17,2.05-.05,3.61-.26,6.01-.08,1.7.2,3.6,0,5.22-.24,1.48-.14,3.04.42,4.47.24,2.94-.14,5.93-.03,8.87,0,2.98-.26,5.99-.16,9.01.13,3.41-.35,6.65-.25,10.03-.2,2.58-.08,5.08-.15,7.6-.16-1.43,1.28-2.95,2.53-4.06,3.38l-1.83,1.39-1.86,1.41c-1.95,1.77-4.9,3.66-6.34,4.47-.36.2-1,.65-1.79,1.26-.81.58-1.81,1.29-2.86,2.04-1.05.76-2.16,1.57-3.2,2.33-1.08.71-2.1,1.36-2.94,1.87l-2.98,1.28c-.25.12-1.28.76-1.6.98l-.49.36c-.26.3-1.41,1.08-2.55,1.74-.58.32-1.89.97-3.29,1.52-1.41.54-2.86,1.1-3.65,1.4-1.53.71-7.46,3.03-9.01,3.55-1.54.55-4.93,1.75-6.11,2.16-1.15.51-6.63,1.86-8.85,2.43-1.12.27-3.66.89-6.24,1.53-.64.16-1.29.32-1.92.47-.64.12-1.25.24-1.82.35-1.15.21-2.14.39-2.78.48l-1.01.31c-.81.25-1.5.4-2.09.5-.6.07-1.11.08-1.59.08-.95,0-1.73-.06-2.75.13l-2.13.38c-2.02.54-5.2.91-7.02,1.13-.46.04-1.22.09-2.14.17-.92.03-1.99.03-3.06.04-.16,0-.32,0-.48,0ZM416.76,407.93c.03-1.88.1-3.73-.27-5.73-.37-1.77.26-3.13.32-4.88.03-4.11-.27-7.64.05-11.61-.07-1.06-.24-1.84-.17-2.84.27-3.43.09-6.97.35-10.49-.23-4.93.27-10.32.25-15.41.1-.78.14-1.19-.07-2.04-.66-3.94.46-8.11-.13-12.06-.24-1.61-.11-3.19-.07-4.81,2.06-.8,4.04-1.69,5.66-3.45,1.57-1.44,3.49-2.37,4.79-4.02.93-1.43,2.63-2.2,3.52-3.53,1.86-3.08,4.61-4.96,6.86-7.87.98-1.09,1.58-2.38,2.37-3.58,1.07-.93,2.14-2.34,3.1-3.31,2.52-2.87,5-5.89,7.87-8.45.68-.49,1.52-1.08,2.34-1.68.21,0,.43,0,.66,0h1.05c.57,0,1.78-.01,2.07-.02.3,0,1.29,0,1.59,0,.3,0,1.02,0,1.2,0,.15,0,.56-.03.66-.04.1,0,.45.03.53.02.09,0,.52,0,.92-.01,0,.01,0,.03,0,.04l-.08,1.32-.08,1.24c0,.66-.16,2.11-.28,3.93-.16,1.82-.21,4.01-.48,6.11l-.4,3.76c-.32,3.2-.36,3.19-.36,3.19-.58,3.54-1.1,6.68-1.15,6.99-.04.31-.65,2.41-1.14,4.28-.28.93-.68,2.94-1.31,4.86-.59,1.92-1.18,3.81-1.44,4.57-.46,1.55-2.13,5.22-2.15,5.83-.06.6-.8,3.34-1.28,4.42-.22.55-.65,1.87-1.15,3.34-.25.74-.52,1.51-.77,2.25-.29.72-.58,1.4-.83,1.97-.94,2.29-5.19,11.11-7.26,14.42-1.72,3.51-8.51,13.12-9.65,14.45-.99,1.45-4.05,5.7-4.81,6.6-.75.91-2.23,2.58-2.77,3.13-.27.28-1.31,1.51-2.65,3.14-1.36,1.6-3.14,3.5-4.69,5.26l-.38.38c-.09.1-.2.21-.35.35ZM128.26,290.41c.04-.66.07-1.37.11-2.12.08-.74.17-1.52.26-2.3.39-3.12.67-6.32.93-7.94l.26-2.64.24-2.46c.08-.68.18-1.46.28-2.3.14-.83.28-1.72.43-2.61.28-1.78.56-3.55.78-4.9.15-1.36.87-3.71,1.48-5.85.63-2.13,1.19-4.05,1.35-4.48l.14-.62,1.66-7.21c2.65-8.04,5.97-16.04,6.87-17.96.44-.97,1.5-3.23,2.66-5.61,1.19-2.36,2.62-4.76,3.49-6.16l.1-.37c.11-.36.28-1.12.74-2.58l.42-1.28c1.91-2.98,3.92-6.06,4.64-6.75.68-.71,3.23-5.53,4.06-6.75.82-1.22,3.72-4.7,4.56-5.82,0,0-.01,0,.34-.58l1.89-3.01c1.15-1.23,2.44-2.77,3.75-4.14,1.31-1.36,2.53-2.64,3.33-3.52,1.51-1.83,6.17-6.82,7.23-8.15,1.11-1.27,5.43-4.98,6.04-5.62.59-.65,2.9-2.84,3.54-3.59.67-.73,3.55-3,4.22-3.64l2.3-1.57,2.53-1.73c3.65-2.86,8.65-6.57,11.15-8.17,1.24-.8,3.47-2.31,5.67-3.45,2.17-1.19,4.17-2.26,4.74-2.61,1.11-.74,5.97-3,8.16-4.03l.25-.13c.25-.14.77-.36,1.81-.81l.76-.33c1.12-.71,2.3-1.24,2.62-1.18.33.08,2.61-.53,4.27-1.31,1.67-.76,6.88-3.36,8.31-3.85.7-.28,3.52-1.25,6.38-2.22,2.89-.85,5.85-1.65,6.73-1.88.44-.11,1.13-.32,1.95-.58.83-.23,1.79-.49,2.76-.75,1.95-.54,3.96-1.1,5.08-1.37,1.11-.29,3.61-.66,6.05-1.09,1.22-.2,2.44-.39,3.46-.56,1.04-.1,1.89-.18,2.38-.23.99-.05,3.96-.49,7.35-.84,3.4-.23,7.19-.66,9.77-.69t2.64-.26c0,.16,0,.34,0,.4,0,.07,0,.35,0,.48,0,.13,0,.57,0,.7,0,.12-.01.38-.02.59l.02.18.07.49c-.02.56-.05,1.28-.05,1.38,0,.11,0,.35,0,.58v.17l.03.16c0,.14,0,.39.03.54l-.03.22-.02.13c0,.21,0,.45,0,.56v.06l.06.36c0,.43-.02,1.38-.02,1.62,0,.23,0,.67.01.77,0,.1-.02.5-.02.62,0,.13.02.55.02.71,0,.13-.02.46-.02.57,0,.1.04.45.03.53-.01.08-.01.41-.02.52,0,.11.02,1,.03,1.29,0,.09,0,.19,0,.29-2.13.23-2.14.23-2.14.23-2.38.03-5.88.42-9.01.64-3.12.33-5.87.73-6.78.77-.45.04-1.24.12-2.2.2-.95.15-2.07.33-3.2.51-2.25.39-4.55.73-5.58,1-2.06.54-7.41,2.01-9.02,2.51-.81.21-3.54.94-6.21,1.73-2.64.89-5.23,1.79-5.88,2.05-1.31.46-6.11,2.87-7.64,3.59-1.53.73-3.64,1.26-3.95,1.17-.3-.07-1.39.42-2.41,1.09l-.7.3c-.96.41-1.44.62-1.67.74l-.23.11c-2.03.94-6.51,3.02-7.53,3.7-.52.32-2.36,1.31-4.37,2.4-2.03,1.04-4.09,2.43-5.23,3.17-2.3,1.48-6.9,4.91-10.26,7.55l-2.34,1.58-2.12,1.43c-.61.6-3.28,2.68-3.89,3.36-.59.7-2.7,2.73-3.25,3.33-.56.59-4.55,4-5.57,5.17-.97,1.22-5.25,5.84-6.65,7.52-.74.8-1.86,1.98-3.08,3.23-1.21,1.25-2.41,2.67-3.48,3.8l-1.72,2.79c-.32.53-.31.53-.31.53-.77,1.03-3.47,4.22-4.22,5.34-.75,1.12-3.09,5.58-3.72,6.23-.67.63-2.55,3.46-4.31,6.2l-.37,1.19c-.76,2.74-.73,2.75-.73,2.75-.81,1.28-2.14,3.5-3.24,5.67-1.07,2.19-2.05,4.28-2.46,5.17-.83,1.77-3.9,9.14-6.35,16.56l-1.5,6.66-.13.58c-.24.81-2.29,7.02-2.65,9.52-.33,2.49-1.12,6.53-1.36,9.04l-.22,2.27-.23,2.44c-.24,1.5-.52,4.44-.88,7.32-.08.72-.16,1.43-.24,2.12-.04.69-.08,1.35-.11,1.95-.04.9-.07,1.68-.07,2.27-.26,0-.64,0-.91,0h-.27c-.13,0-.29,0-.42-.01h-.15c-.18,0-.67.02-.81.02h-.77c-.14,0-.58.06-.71.04-.12-.02-.34-.04-.48-.04h-.13c-.13,0-.34.03-.37.02l-.15-.05c-.08.03-1.5.07-2.01.08-.51,0-1.03,0-1.15-.02h-.22c-.12.02-.42.03-.65.03h-.22c-.22,0-.45.01-.64,0l-.23-.02c-.19.02-.56.03-.68.04-.15,0-.43.01-.66.02h-.42c-.24,0-.7,0-.82,0-.12,0-.62.01-.79.01-.07,0-.15,0-.22,0-.02-.67,0-1.69.07-2.94ZM130.63,301.65s-.05,0-.05,0c-.02,0-.05,0-.07,0h.12ZM129.84,301.65s0,.01,0,.03h0s-.08.01-.1,0c-.01,0-.08-.02-.16-.04h.26ZM128.35,301.65h1.01c-.13.02-.3.06-.41.05-.19,0-.47,0-.58,0,0,0-.02,0-.03,0,0-.01,0-.03,0-.04ZM293.39,474.7c-.62-.07-1.66-.15-2.95-.23-1.29-.08-2.83-.15-4.41-.35-1.59-.17-3.24-.34-4.77-.5-.77-.08-1.5-.16-2.18-.23-.68-.11-1.3-.21-1.85-.3l-3.05-.98-.45-.15c-1.31-.3-3.37-.51-4.54-.66-1.18-.11-4.13-.67-5.99-1.07-.94-.15-3.58-.95-6.57-1.85-3.01-.84-6.29-2.08-8.58-2.94l-.5-.1c-.49-.12-1.5-.27-3.46-.76-.99-.26-3.97-1.66-5.62-2.21-1.87-.6-2.77-.99-3.23-1.17l-.46-.18c-2.9-1.6-6.29-3.33-7.46-4.04-1.18-.68-5.84-2.79-7.35-3.85l-1.37-.93c-1.75-1.21-3.16-1.12-5.18-2.92-.19-.18-2.72-1.54-4.11-2.44l-1.96-1.26c-2.04-1.46-4.2-3.22-4.9-3.75-.34-.29-1.68-1.17-3.2-2.32-1.5-1.18-3.23-2.55-4.53-3.58-1.32-1-3.65-2.93-5.78-4.64-1.06-.86-2.08-1.65-2.84-2.31-.75-.67-1.28-1.15-1.43-1.31-.58-.68-3.61-3.9-4.99-5.76l-1.99-1.41-3.05-2.17c-1.63-1.97-3.36-4.34-5-6.41-1.64-2.07-2.92-4.06-3.8-5.2-.43-.58-1.14-1.49-2-2.55-.82-1.09-1.76-2.35-2.69-3.59-.94-1.24-1.87-2.46-2.64-3.49-.74-1.05-1.34-1.91-1.67-2.38-.67-.93-1.83-2.7-2.99-4.47-1.09-1.82-2.17-3.63-2.74-4.59l-.6-1.31-.66-1.45c-.47-1.27-1.6-3.62-2.65-5.16l-.86-1.29-.15-.23c-.22-.39-.5-.95-.78-1.54-.24-.6-.48-1.23-.64-1.73-.33-1.02-1.75-4.7-2.34-5.72-.57-1.03-4.08-9.82-4.46-11.65-.52-1.79-2-5.93-2.35-7.71-.4-1.76-1.73-5.63-2.01-7.12-.29-1.48-1.69-6.76-2.13-8.65-.24-.94-.6-3.43-.97-6.15-.38-2.72-.51-5.71-.74-7.6l-.77-2.5c-.09-.27-.14-1.61-.19-2.42l-.26-5.06c-.07-1.9-.13-3.94-.18-5.9.11,0,.2,0,.24,0,.07,0,.35,0,.48,0,.13,0,.57,0,.7,0,.12,0,.38.01.59.02l.18-.02.49-.07c.56.02,1.28.05,1.38.05.11,0,.35,0,.58,0h.17l.16-.03c.14,0,.39,0,.54-.03l.22.03.13.02c.21,0,.45,0,.56,0h.06l.36-.06c.43,0,1.38.02,1.62.02.23,0,.67,0,.77-.01.1,0,.5.02.62.02.13,0,.55-.02.71-.02.13,0,.46.02.57.02.1,0,.45-.04.53-.03.08.01.41.01.52.02.11,0,1-.02,1.29-.03.13,0,.28,0,.42.01.04,1.71.09,3.48.15,5.14l.23,4.66c.04.75.09,1.98.17,2.23l.74,2.3c.2,1.75.32,4.5.66,7.01.33,2.51.66,4.81.89,5.68.42,1.74,1.71,6.61,1.98,7.98.26,1.37,1.49,4.94,1.86,6.57.32,1.64,1.69,5.47,2.16,7.11.35,1.69,3.58,9.79,4.12,10.74.56.94,1.85,4.34,2.15,5.28.15.47.36,1.05.59,1.6.25.54.51,1.06.71,1.42l.14.21.8,1.18c.99,1.41,2.03,3.58,2.45,4.76l.6,1.34.54,1.21c.53.89,1.53,2.56,2.54,4.23,1.07,1.63,2.15,3.27,2.76,4.12.3.43.86,1.21,1.55,2.18.72.95,1.58,2.07,2.44,3.21.86,1.14,1.73,2.3,2.49,3.3.79.98,1.45,1.81,1.84,2.35.81,1.06,1.98,2.9,3.48,4.81,1.5,1.91,3.08,4.1,4.58,5.93l2.85,1.96,1.86,1.28c1.26,1.72,4.03,4.72,4.57,5.34.27.31,1.95,1.79,3.94,3.33,1.97,1.57,4.12,3.34,5.34,4.27,1.2.95,2.8,2.21,4.18,3.3,1.42,1.03,2.61,1.9,2.94,2.14.65.49,2.63,2.12,4.51,3.48l1.8,1.17c1.28.83,3.63,2.07,3.8,2.23,1.84,1.69,3.17,1.56,4.77,2.68l1.26.87c1.39.98,5.69,2.93,6.78,3.55,1.08.66,4.2,2.27,6.86,3.76l.42.16c.42.16,1.25.51,2.98,1.06,1.53.51,4.27,1.81,5.19,2.04,1.82.43,2.75.57,3.2.67l.46.09c2.11.8,5.13,1.95,7.91,2.73,2.76.84,5.19,1.57,6.06,1.71,1.71.36,4.44.87,5.53.96,1.08.12,2.98.31,4.19.59l.42.14,2.81.94c2.02.4,5.2.6,8.13.94,1.46.18,2.88.25,4.07.32,1.19.07,2.15.15,2.72.21,1.14.12,2.46.28,3.59.36,1.13.06,2.06.11,2.39.13.19.02.66.07,1.25.14,0,.26,0,.7,0,.99v.27c0,.13,0,.29-.01.42v.15c0,.18.02.67.02.81v.77c0,.14.06.58.04.71-.02.12-.04.34-.04.48v.13c0,.13.03.34.02.37l-.05.15c.03.08.07,1.5.08,2.01,0,.51,0,1.03-.02,1.15v.22c.02.12.03.42.03.65v.22c0,.22.01.45,0,.64l-.02.23c.02.19.03.56.04.68,0,.15.01.43.02.66v.42c0,.24,0,.7,0,.82,0,.12.01.62.01.79,0,.06,0,.13,0,.2-.87-.09-1.59-.18-1.84-.2-.36-.02-1.37-.07-2.59-.13-1.22-.08-2.66-.25-3.9-.38ZM483.67,304.3l-.08,1.41c0,.75-.17,2.4-.32,4.47-.19,2.07-.25,4.56-.55,6.95l-.47,4.27c-.38,3.63-.42,3.63-.42,3.63-.67,4.02-1.26,7.6-1.32,7.95-.04.35-.72,2.74-1.28,4.87-.32,1.06-.77,3.35-1.48,5.53-.67,2.19-1.33,4.34-1.62,5.2-.15.43-.35,1.03-.58,1.69-.26.65-.54,1.36-.81,2.04-.53,1.36-.99,2.58-1.03,2.92-.09.67-.95,3.79-1.49,5.02-.25.63-.75,2.12-1.33,3.8-.29.84-.6,1.71-.89,2.55-.33.82-.66,1.59-.95,2.24-1.07,2.61-5.91,12.64-8.26,16.4-1.96,3.99-9.65,14.94-10.95,16.47-1.12,1.65-4.64,6.46-5.5,7.49-.85,1.04-2.53,2.94-3.14,3.57-.3.32-1.49,1.72-3.02,3.56-1.56,1.82-3.59,3.97-5.36,5.96l-.43.43c-.41.45-1.33,1.26-3.13,2.92l-2.64,2.42c-1,1.14-2.47,2.4-3.89,3.67-1.44,1.25-2.85,2.48-3.98,3.3l-2.08,1.59-2.11,1.61c-2.22,2-5.58,4.15-7.2,5.1-.41.23-1.13.75-2.04,1.43-.93.66-2.07,1.46-3.27,2.3-1.2.86-2.46,1.77-3.66,2.62-1.23.8-2.4,1.53-3.36,2.11l-3.36,1.5c-.28.14-1.46.86-1.82,1.1l-.56.4c-.3.32-1.62,1.19-2.93,1.93-.66.36-2.15,1.1-3.74,1.75-1.6.63-3.24,1.27-4.14,1.62-1.74.82-8.48,3.46-10.24,4.06-1.76.62-5.62,1.98-6.96,2.46-1.31.58-7.53,2.13-10.07,2.79-1.27.31-4.16,1.01-7.1,1.73-.73.18-1.47.36-2.19.54-.72.14-1.42.27-2.08.4-1.31.24-2.43.44-3.17.55l-1.15.34c-.93.27-1.71.44-2.38.55-.68.08-1.26.1-1.8.11-1.07.02-1.97-.03-3.13.18l-2.42.42c-2.3.58-5.92.97-7.99,1.21-.52.04-1.39.11-2.43.19-1.05.04-2.27.04-3.49.05-.36,0-.73,0-1.09,0,0-.07,0-.13,0-.17,0-.16,0-.44,0-.51,0-.07,0-.35,0-.48,0-.13,0-.57,0-.7,0-.12.01-.38.02-.59l-.02-.18-.07-.49c.02-.56.05-1.28.05-1.38,0-.11,0-.35,0-.58v-.17l-.03-.16c0-.14,0-.39-.03-.54l.03-.22.02-.13c0-.21,0-.45,0-.56v-.06l-.06-.36c0-.43.02-1.38.02-1.62,0-.23,0-.67-.01-.77,0-.1.02-.5.02-.62,0-.13-.02-.55-.02-.71,0-.13.02-.46.02-.57,0-.1-.04-.45-.03-.53.01-.08.01-.41.02-.52,0-.1-.02-.93-.03-1.25,2.47,0,5.12-.05,6.18-.22,1.91-.23,5.24-.61,7.36-1.16l2.23-.4c1.07-.19,1.89-.14,2.88-.15.5,0,1.03-.02,1.66-.09.62-.1,1.34-.26,2.2-.52l1.06-.32c.68-.1,1.71-.28,2.92-.5.6-.12,1.25-.24,1.91-.37.66-.16,1.34-.33,2.02-.49,2.71-.66,5.37-1.31,6.55-1.6,2.34-.59,8.08-2.02,9.29-2.56,1.24-.44,4.79-1.7,6.41-2.27,1.63-.55,7.84-2.99,9.45-3.73.83-.32,2.35-.91,3.82-1.48,1.47-.59,2.84-1.27,3.45-1.6,1.2-.69,2.41-1.5,2.69-1.81l.51-.38c.33-.23,1.42-.89,1.68-1.02l3.11-1.36c.88-.54,1.96-1.22,3.09-1.96,1.1-.79,2.26-1.63,3.36-2.43,1.11-.79,2.15-1.53,3-2.14.84-.64,1.5-1.11,1.88-1.32,1.5-.86,4.59-2.84,6.64-4.69l1.95-1.48,1.92-1.46c2.03-1.54,5.35-4.39,7.25-6.42l2.44-2.23c1.66-1.53,2.51-2.27,2.89-2.69l.4-.4c1.63-1.84,3.49-3.83,4.93-5.51,1.41-1.7,2.5-3,2.78-3.29.56-.58,2.11-2.33,2.9-3.29.8-.95,4.01-5.4,5.05-6.92,1.2-1.4,8.3-11.49,10.11-15.17,2.16-3.47,6.63-12.72,7.61-15.12.26-.59.57-1.31.87-2.06.27-.77.55-1.58.81-2.35.53-1.54.99-2.93,1.21-3.51.5-1.14,1.29-4.01,1.35-4.64.04-.64,1.77-4.5,2.25-6.12.27-.8.88-2.78,1.5-4.8.66-2.01,1.08-4.13,1.37-5.1.52-1.96,1.14-4.17,1.19-4.49.05-.32.6-3.62,1.21-7.33,0,0,.04,0,.38-3.35l.42-3.94c.28-2.2.34-4.5.51-6.41.13-1.91.28-3.43.29-4.12l.08-1.3.09-1.39c0-.1.01-.22.02-.36.26,0,.67,0,.95,0h.27c.13,0,.29,0,.42.01h.15c.18,0,.67-.02.81-.02h.77c.14,0,.58-.06.71-.04.12.02.34.04.48.04h.13c.13,0,.34-.03.37-.02l.15.05c.08-.03,1.5-.07,2.01-.08.51,0,1.03,0,1.15.02h.22c.12-.02.42-.03.65-.03h.22c.22,0,.45-.01.64,0l.23.02c.19-.02.56-.03.68-.04.15,0,.43-.01.66-.02h.42c.24,0,.7,0,.82,0,.12,0,.62-.01.79-.01.06,0,.13,0,.2,0-.01.37-.02.67-.03.89l-.09,1.5Z"/>
        <path class="cls-1" d="M320.58,296.65c-.03-.17-.12-.47-.23-.64l-.08-.19c-.07-.19.18-.33,0-.62l-.06-.09c.02-.25-.26-.96-.29-1.17-.02-.2-.09-.73-.16-.83-.05-.12-.19-.41-.22-.57-.02-.15-.22-.71-.28-.85-.04-.15-.12-.59-.19-.69-.07-.11-.19-.19-.25-.19l-.06-.03s-.1-.12-.12-.15l-.03-.32c-.23-.29-.77-.78-.82-.92-.03-.17-.2-.44-.38-.6l-.11-.2-.12-.17c-.1-.21-.38-.48-.6-.62l-.18-.23c-.22-.29-.25-.31-.25-.31-.35-.26-.77-.57-.82-.63-.04-.06-.19-.2-.28-.29-.07-.07-.52-.28-.64-.4-.09-.13-.97-.77-1.29-.95-.31-.2-1.14-.57-1.33-.67-.21-.12-.65-.13-.75-.18-.1-.03-.37-.07-.42-.04-.08.04-.39-.21-.52-.27-.14-.05-.69-.25-.86-.3-.16-.08-.35-.17-.38-.17s-.32-.02-.66-.05l-.29-.03-.36-.02c-.39-.03-.8-.03-.93-.06h-.11l-.13-.04c-.13-.03-.66,0-.8,0-.16-.03-.55-.03-.85-.01l-.24.05-.17.08c-.18.03-.72.1-1.19.17,0,0,0-.01-.41.02h-.22c-.15.09-.91.39-1.27.55-.21.08-.59.21-.96.34-.35.16-.67.32-.76.38-.17.12-.47.18-.53.18-.05,0-.33.22-.45.26-.12.03-.47.19-.59.28-.11.07-.39.28-.51.4-.12.13-.51.42-.63.48-.13.04-.32.29-.44.51l-.14.18-.08.1c-.16.1-.36.28-.42.45l-.18.11-.13.07c-.18.12-.87,1.03-1.03,1.22-.19.19-.36.39-.39.45v.12c0,.07-.29.3-.35.47-.08.16-.24.46-.37.68l-.09.22c-.06.15-.2.27-.26.41-.07.17-.1.36-.15.52v.03s-.26.26-.26.38c-.02.1-.12.63-.21.8-.1.18-.23.82-.26,1.01-.03.19-.18.68-.22.79-.04.14-.25,1.12-.2,1.44.02.34.05.97.01,1.04-.04.06-.15.24-.21.38l.09.24.11.26c0,.42.1,1.23.11,1.39-.01.16.05.79.09.97.06.19.31.63.32.77-.01.15.24.96.32,1.06.08.1.37.48.46.61.1.12.04.36-.02.4-.05.04,0,.15.09.21l.03.05.07.18c.05.19.2.62.27.69.06.09.29.67.45.86.13.21.49.57.73.85l.09.25.09.22c.07.03.22.31.31.34.09.03.32.16.36.2.06.05.31.46.43.53.13.06.59.38.72.53.11.14.33.47.51.69l.31.07h.06c.08.09.3.41.41.47.1.06.55.16.6.25.03.09.23.32.45.52l.15-.02.32-.11c.18.22.73.55.89.62.15.09.81.34,1.44.6l.63.03h.04c.08.03.59.36.81.36.22.02.58.05.8.08h.43c.25.04,1.03.28,1.24.22.21-.03.75-.08,1.21-.06l.42.03c.06,0,.18,0,.19-.02l.19-.19c.31-.01.98.06,1.14-.01.15-.07.56-.22.69-.24.12-.03.43-.16.57-.16.17,0,.49-.14.65-.16.15-.03.88-.28.95-.36.07-.08.4-.14.48-.14.11,0,.24-.04.3-.08v-.02l.09-.12c.1-.13.3-.22.43-.2l.14-.02h.13c.15-.13.58-.39.72-.52.14-.12.7-.71.92-.81.22-.1.7-.37,1.08-.56l.06-.39.02-.25c.2-.06.52-.25.6-.29.06-.05.44-.66.6-.87.17-.2.42-.58.48-.63.06-.06.24-.2.37-.35l.1-.16c.07-.12.13-.37.15-.37.28-.1.08-.32.23-.44l.1-.08c.12-.11.25-.52.31-.6.06-.11.27-.34.47-.56,0,0,.01-.02.06-.32.01-.15.17-.37.16-.47l-.04-.37c.2-.35.42-1.05.45-1.21.03-.15.04-.4.01-.5-.02-.11-.04-.28-.01-.38l.03-.03.19-.24c.04-.36.04-1.13.06-1.32.04-.22.09-.45.1-.52.02-.06.19-.41.13-.5h.02c0-.16.04-.81,0-.97ZM316.12,297.62h-.02c.06.07-.1.31-.12.35,0,.05-.04.21-.06.35-.02.15,0,.67-.03.92l-.16.16-.03.03c-.02.07,0,.19.03.27.03.06.01.23,0,.34-.03.11-.17.6-.33.84l.07.27c.01.06-.11.21-.12.31-.02.24-.03.24-.03.24-.15.14-.31.3-.35.36-.05.07-.12.35-.21.43l-.08.05c-.11.08.05.26-.16.31,0,0-.04.17-.09.25l-.07.12c-.11.09-.24.2-.28.23-.04.04-.2.3-.32.44-.12.14-.37.59-.41.62-.05.03-.29.15-.44.17v.5c-.31.13-.65.29-.78.36-.16.05-.54.49-.64.57-.1.1-.4.28-.5.36h-.18c-.11-.02-.24.04-.31.16l-.05.08h-.01c-.04.05-.14.06-.2.06-.07,0-.3.03-.35.1-.04.05-.54.22-.65.24-.11.01-.35.1-.45.1s-.31.1-.4.11c-.08.01-.38.13-.47.18-.1.06-.58-.02-.8-.01l-.13.16s-.08,0-.13,0l-.3-.03c-.3-.02-.69.02-.83.06-.15.04-.68-.15-.87-.18h-.29c-.15-.01-.4-.04-.56-.04s-.51-.26-.55-.29h-.04l-.42.02c-.44-.19-.89-.38-1-.43-.11-.05-.49-.28-.61-.45l-.24.1-.11.04c-.14-.14-.28-.33-.3-.4-.02-.08-.35-.11-.42-.15-.08-.04-.21-.28-.26-.34h-.05l-.23-.04c-.11-.16-.25-.4-.33-.5-.1-.11-.42-.31-.51-.35-.09-.05-.24-.34-.29-.37-.04-.03-.2-.12-.27-.13-.06-.02-.16-.22-.22-.23l-.04-.16-.06-.19c-.17-.18-.42-.44-.53-.57-.11-.13-.25-.54-.31-.6-.05-.06-.13-.36-.17-.49l-.04-.12v-.04c-.09-.04-.13-.11-.08-.15.04-.04.12-.2.04-.28-.06-.09-.29-.34-.34-.41-.07-.06-.24-.62-.23-.73-.01-.11-.2-.4-.24-.53-.04-.12-.07-.56-.05-.67,0-.12-.08-.68-.08-.97l-.08-.17-.08-.17c.05-.1.14-.22.17-.27.04-.04.01-.48-.03-.72-.02-.22.12-.9.16-.98.03-.1.14-.43.15-.56.03-.12.11-.57.19-.69.05-.12.12-.5.12-.58s.17-.24.2-.25h0c.02-.13.04-.26.08-.38.05-.1.16-.18.19-.27l.06-.16c.09-.16.2-.37.25-.48.04-.12.27-.28.24-.33v-.08s.15-.19.28-.31c.12-.13.59-.77.7-.84l.11-.05.12-.07c.04-.11.19-.25.31-.3l.05-.08.09-.13c.07-.16.19-.35.28-.38.1-.02.38-.24.46-.33.08-.08.26-.23.34-.28.08-.05.33-.16.41-.18.08-.03.27-.18.32-.18.04,0,.26-.02.38-.1.1-.11.89-.43,1.18-.51.25-.11.77-.35.88-.39h.14c.28-.02.28-.01.28-.01.34-.05.71-.11.84-.12l.12-.05.16-.06c.21-.01.48,0,.59.02.1.01.48-.02.57.01h.08l.08.04c.08,0,.37,0,.64.03h.25l.2.02c.24.02.44.03.45.03.03,0,.16.08.27.12.12.05.5.19.6.24.09.04.29.23.34.2.06-.03.24-.01.31.01.06.03.37.02.52.1.13.08.72.33.93.46.21.12.82.59.88.68.08.08.41.21.46.27.06.06.15.16.17.2.03.05.34.26.59.42,0,0,.01,0,.17.23l.12.16c.16.09.35.28.42.42l.08.14.08.12c.13.12.25.3.26.42.03.12.43.43.59.63v.24s.06.08.09.09h.05s.14.08.19.15c.05.06.09.37.12.48.03.1.17.49.19.59.01.11.11.32.14.39.05.08.09.44.11.59.01.14.22.63.2.82l.05.05c.16.2-.07.3,0,.43l.06.13c.1.12.16.32.19.44.03.12,0,.56-.01.68Z"/>
      </g>
    </g>
  </g>
</svg>